<svg width="18" height="18" viewBox="0 0 18 18" fill="none" xmlns="http://www.w3.org/2000/svg">
<path d="M9 1.875C7.59081 1.875 6.21327 2.29287 5.04157 3.07578C3.86986 3.85868 2.95664 4.97146 2.41736 6.27338C1.87809 7.5753 1.73699 9.0079 2.01191 10.39C2.28683 11.7721 2.96542 13.0417 3.96187 14.0381C4.95832 15.0346 6.22787 15.7132 7.60998 15.9881C8.9921 16.263 10.4247 16.1219 11.7266 15.5826C13.0285 15.0434 14.1413 14.1301 14.9242 12.9584C15.7071 11.7867 16.125 10.4092 16.125 9C16.1228 7.111 15.3715 5.3 14.0357 3.96428C12.7 2.62855 10.889 1.87718 9 1.875ZM11.7803 10.7198C11.8519 10.7889 11.909 10.8717 11.9483 10.9632C11.9876 11.0547 12.0083 11.1531 12.0092 11.2527C12.0101 11.3523 11.9911 11.451 11.9534 11.5432C11.9157 11.6354 11.86 11.7191 11.7895 11.7895C11.7191 11.86 11.6354 11.9157 11.5432 11.9534C11.451 11.9911 11.3523 12.0101 11.2527 12.0092C11.1531 12.0083 11.0547 11.9876 10.9632 11.9483C10.8717 11.909 10.7889 11.8519 10.7198 11.7802L9 10.0605L7.28025 11.7802C7.1388 11.9169 6.94935 11.9925 6.7527 11.9908C6.55606 11.989 6.36795 11.9102 6.22889 11.7711C6.08983 11.6321 6.01096 11.4439 6.00925 11.2473C6.00754 11.0507 6.08313 10.8612 6.21975 10.7198L7.9395 9L6.21975 7.28025C6.08313 7.1388 6.00754 6.94935 6.00925 6.7527C6.01096 6.55605 6.08983 6.36794 6.22889 6.22889C6.36795 6.08983 6.55606 6.01095 6.7527 6.00924C6.94935 6.00754 7.1388 6.08313 7.28025 6.21975L9 7.9395L10.7198 6.21975C10.8612 6.08313 11.0507 6.00754 11.2473 6.00924C11.444 6.01095 11.6321 6.08983 11.7711 6.22889C11.9102 6.36794 11.989 6.55605 11.9908 6.7527C11.9925 6.94935 11.9169 7.1388 11.7803 7.28025L10.0605 9L11.7803 10.7198Z" fill="#6B7280"/>
</svg>
