<svg width="34" height="34" viewBox="0 0 34 34" fill="none" xmlns="http://www.w3.org/2000/svg">
<path fill-rule="evenodd" clip-rule="evenodd" d="M30.9371 15.7622L30.6124 19.2122C30.0773 24.8967 29.8099 27.739 28.1345 29.4527C26.4592 31.1666 23.9481 31.1666 18.9262 31.1666H15.0731C10.0512 31.1666 7.54018 31.1666 5.8648 29.4527C4.18943 27.739 3.92193 24.8967 3.38692 19.2122L3.06224 15.7622C2.80722 13.0527 2.67972 11.6979 3.14324 11.1379C3.39398 10.8349 3.73494 10.6493 4.09949 10.6173C4.77338 10.5581 5.6197 11.5215 7.31232 13.4484C8.18768 14.445 8.62536 14.9432 9.11361 15.0204C9.38415 15.0631 9.65981 15.0191 9.90962 14.8935C10.3605 14.6665 10.6611 14.0506 11.2623 12.8187L14.4311 6.32514C15.5671 3.99721 16.1352 2.83325 16.9997 2.83325C17.8641 2.83325 18.4322 3.99721 19.5682 6.32512L22.737 12.8186C23.3383 14.0506 23.6389 14.6665 24.0897 14.8935C24.3396 15.0191 24.6152 15.0631 24.8857 15.0204C25.374 14.9432 25.8116 14.445 26.687 13.4484C28.3796 11.5215 29.2259 10.5581 29.8998 10.6173C30.2643 10.6493 30.6053 10.8349 30.8561 11.1379C31.3196 11.6979 31.1921 13.0527 30.9371 15.7622ZM11.6872 25.4999C11.6872 24.9131 12.1629 24.4374 12.7497 24.4374H21.2497C21.8365 24.4374 22.3122 24.9131 22.3122 25.4999C22.3122 26.0867 21.8365 26.5624 21.2497 26.5624H12.7497C12.1629 26.5624 11.6872 26.0867 11.6872 25.4999Z" fill="#C27803"/>
</svg>
