<svg width="37" height="24" viewBox="0 0 37 24" fill="none" xmlns="http://www.w3.org/2000/svg">
<g clip-path="url(#clip0_20_1731)">
<path d="M1.89744 0.00012207H35.1026C36.1505 0.00012207 37 0.859754 37 1.92012V22.0801C37 23.1405 36.1505 24.0001 35.1026 24.0001H1.89744C0.84953 24.0001 0 23.1405 0 22.0801V1.92012C0 0.859754 0.84953 0.00012207 1.89744 0.00012207Z" fill="#2557D6"/>
<path d="M0.0119559 11.3132H1.788L2.18846 10.3767H3.085L3.48441 11.3132H6.97891V10.5973L7.29085 11.3163H9.10494L9.41688 10.5866V11.3132H18.1014L18.0974 9.77597H18.2654C18.383 9.77995 18.4174 9.79047 18.4174 9.97882V11.3132H22.9091V10.9554C23.2714 11.1435 23.8349 11.3132 24.5764 11.3132H26.466L26.8704 10.3767H27.7669L28.1624 11.3132H31.8038V10.4237L32.3553 11.3132H35.2733V5.43274H32.3854V6.1272L31.9812 5.43274H29.0178V6.1272L28.6465 5.43274H24.6439C23.9739 5.43274 23.385 5.52341 22.9092 5.77608V5.43274H20.147V5.77608C19.8442 5.51564 19.4317 5.43274 18.973 5.43274H8.88147L8.20437 6.95151L7.50901 5.43274H4.33057V6.1272L3.98134 5.43274H1.27062L0.0117188 8.22855V11.3131H0.0118611L0.0119559 11.3132ZM11.223 10.465H10.1574L10.1534 7.1629L8.64614 10.465H7.73348L6.22226 7.15997V10.465H4.10805L3.70864 9.52455H1.54428L1.14084 10.465H0.0118136L1.87325 6.24879H3.41771L5.1856 10.2407V6.24879H6.88219L8.24256 9.10896L9.49221 6.24879H11.2229L11.223 10.465ZM3.35334 8.64951L2.6419 6.96869L1.93439 8.64951H3.35334ZM15.4637 10.4649H11.9913V6.24874H15.4637V7.12671H13.0308V7.88669H15.4054V8.75093H13.0307V9.59295H15.4637L15.4637 10.4649ZM20.3572 7.38427C20.3572 8.05647 19.8945 8.4038 19.6248 8.50805C19.8523 8.59195 20.0466 8.74028 20.1391 8.86311C20.2858 9.07282 20.3112 9.26012 20.3112 9.63667V10.4649H19.2626L19.2587 9.93322C19.2587 9.67954 19.2837 9.31469 19.0947 9.11184C18.9428 8.96352 18.7112 8.93136 18.337 8.93136H17.2211V10.465H16.1816V6.24874H18.5724C19.1037 6.24874 19.4951 6.26232 19.8311 6.45068C20.16 6.63903 20.3572 6.91397 20.3572 7.38427ZM19.0433 8.01029C18.9004 8.09439 18.7315 8.09717 18.529 8.09717H17.2663V7.16069H18.5462C18.7273 7.16069 18.9164 7.16856 19.0392 7.23672C19.174 7.29816 19.2575 7.42887 19.2575 7.60944C19.2575 7.79376 19.1781 7.94204 19.0433 8.01029ZM22.0243 10.4649H20.9638V6.24874H22.0243V10.4649ZM34.3368 10.4649H32.8638L30.8935 7.30042V10.4649H28.7766L28.3721 9.5245H26.2127L25.8204 10.4649H24.6038C24.0986 10.4649 23.4588 10.3566 23.0966 9.99859C22.7313 9.64061 22.5412 9.15572 22.5412 8.38901C22.5412 7.76372 22.6548 7.19208 23.1015 6.74036C23.4376 6.40388 23.9639 6.24874 24.6802 6.24874H25.6865V7.15215H24.7013C24.3219 7.15215 24.1076 7.20687 23.9014 7.40189C23.7242 7.57944 23.6026 7.91501 23.6026 8.35695C23.6026 8.80863 23.6952 9.13435 23.8883 9.34709C24.0483 9.51394 24.3393 9.56453 24.6128 9.56453H25.0796L26.5447 6.24888H28.1022L29.8622 10.2368V6.24893H31.4449L33.2721 9.18528V6.24893H34.3368V10.4649ZM28.0183 8.64955L27.299 6.96874L26.5836 8.64955H28.0183ZM36.9856 17.1974C36.7332 17.5553 36.2412 17.7368 35.5751 17.7368H33.5676V16.8325H35.5669C35.7652 16.8325 35.904 16.8072 35.9876 16.7281C36.0666 16.6573 36.1111 16.5575 36.1105 16.4531C36.1105 16.3302 36.06 16.2326 35.9835 16.1742C35.9081 16.1098 35.7983 16.0806 35.6172 16.0806C34.6413 16.0484 33.4236 16.1098 33.4236 14.7753C33.4236 14.1636 33.8241 13.5198 34.9149 13.5198H36.9854V12.6808H35.0616C34.4811 12.6808 34.0593 12.8157 33.7607 13.0251V12.6807H30.9152C30.4601 12.6807 29.926 12.7901 29.6734 13.0251V12.6807H24.5921V13.0251C24.1877 12.7423 23.5054 12.6807 23.1904 12.6807H19.8387V13.0251C19.5188 12.7248 18.8074 12.6807 18.3736 12.6807H14.6225L13.7642 13.5814L12.9602 12.6807H7.35665V18.5651H12.8545L13.739 17.6501L14.5722 18.5651L17.9611 18.568V17.1838H18.2941C18.7438 17.1905 19.2742 17.1728 19.742 16.9768V18.5649H22.5373V17.0312H22.6721C22.8442 17.0312 22.8612 17.0381 22.8612 17.2047V18.5647H31.3527C31.8917 18.5647 32.4553 18.4309 32.7674 18.1881V18.5647H35.4608C36.0213 18.5647 36.5686 18.4885 36.9851 18.2935L36.9852 17.1972L36.9856 17.1974ZM20.1487 14.934C20.1487 16.1054 19.2472 16.3473 18.3386 16.3473H17.0416V17.7618H15.0212L13.7412 16.3657L12.411 17.7618H8.2935V13.5446H12.4743L13.7532 14.9269L15.0755 13.5446H18.397C19.2218 13.5446 20.1487 13.766 20.1487 14.934ZM11.8844 16.8748H9.3287V16.0357H11.6108V15.1753H9.3287V14.4085H11.9348L13.0718 15.6375L11.8844 16.8748ZM16.0024 17.3577L14.4064 15.6398L16.0024 13.9766V17.3577ZM18.3626 15.4825H17.0193V14.4085H18.3747C18.75 14.4085 19.0105 14.5569 19.0105 14.9256C19.0105 15.2904 18.762 15.4825 18.3626 15.4825ZM25.4002 13.5446H28.8696V14.4168H26.4354V15.1835H28.8101V16.0439H26.4354V16.8829L28.8695 16.8868V17.7618H25.4001L25.4002 13.5446ZM24.0664 15.802C24.2978 15.8848 24.4869 16.0332 24.5755 16.156C24.7224 16.362 24.7436 16.5541 24.7478 16.9258V17.7618H23.7041V17.2342C23.7041 16.9805 23.7293 16.6048 23.5361 16.4087C23.3842 16.2576 23.1527 16.2216 22.7735 16.2216H21.6626V17.7619H20.618V13.5446H23.018C23.5442 13.5446 23.9275 13.5672 24.2687 13.7437C24.5967 13.9358 24.8031 14.199 24.8031 14.6802C24.803 15.3532 24.3399 15.6967 24.0664 15.802ZM23.4789 15.2689C23.3398 15.3489 23.1679 15.3558 22.9657 15.3558H21.7029V14.4086H22.9828C23.1679 14.4086 23.3531 14.4125 23.4789 14.4848C23.6136 14.5531 23.6941 14.6838 23.6941 14.8642C23.6941 15.0445 23.6135 15.1899 23.4789 15.2689ZM32.8626 15.5375C33.0652 15.7405 33.1735 15.9969 33.1735 16.4309C33.1735 17.3381 32.589 17.7616 31.5406 17.7616H29.516V16.8573H31.5325C31.7297 16.8573 31.8695 16.8321 31.957 16.7529C32.0286 16.6877 32.0799 16.5929 32.0799 16.4779C32.0799 16.355 32.0244 16.2575 31.953 16.199C31.8735 16.1347 31.7639 16.1054 31.5828 16.1054C30.6107 16.0733 29.3933 16.1347 29.3933 14.8002C29.3933 14.1885 29.7897 13.5446 30.8795 13.5446H32.9634V14.4422H31.0566C30.8676 14.4422 30.7447 14.4492 30.6402 14.5184C30.5263 14.5867 30.4841 14.6881 30.4841 14.8217C30.4841 14.9808 30.5807 15.0891 30.7116 15.1359C30.8212 15.1729 30.939 15.1837 31.116 15.1837L31.6756 15.1984C32.2399 15.2116 32.6272 15.3063 32.8626 15.5375ZM36.9874 14.4085H35.0929C34.9039 14.4085 34.7781 14.4155 34.6723 14.4847C34.5627 14.553 34.5204 14.6544 34.5204 14.7882C34.5204 14.9473 34.613 15.0554 34.7477 15.1023C34.8574 15.1393 34.9752 15.1501 35.1482 15.1501L35.7117 15.1647C36.2801 15.1783 36.6596 15.2731 36.8909 15.5041C36.9332 15.5363 36.9584 15.5724 36.9874 15.6085V14.4085H36.9874Z" fill="white"/>
</g>
<defs>
<clipPath id="clip0_20_1731">
<rect width="37" height="24" fill="white"/>
</clipPath>
</defs>
</svg>
