<svg width="106" height="106" viewBox="0 0 106 106" fill="none" xmlns="http://www.w3.org/2000/svg">
<path d="M79.5 26.5H41.5387L35.8744 18.0531C35.5743 17.5975 35.1663 17.223 34.6867 16.9629C34.207 16.7029 33.6706 16.5653 33.125 16.5625H26.5C23.8644 16.5625 21.3368 17.6095 19.4731 19.4731C17.6095 21.3368 16.5625 23.8644 16.5625 26.5V43.0625C16.5625 43.941 16.9115 44.7836 17.5327 45.4048C18.1539 46.026 18.9965 46.375 19.875 46.375H86.125C87.0035 46.375 87.8461 46.026 88.4673 45.4048C89.0885 44.7836 89.4375 43.941 89.4375 43.0625V36.4375C89.4375 33.8019 88.3905 31.2743 86.5269 29.4106C84.6632 27.547 82.1356 26.5 79.5 26.5Z" fill="#DDF9D3"/>
<path d="M92.75 39.75H13.25C11.4206 39.75 9.9375 41.2331 9.9375 43.0625V56.3125C9.9375 58.1419 11.4206 59.625 13.25 59.625H92.75C94.5794 59.625 96.0625 58.1419 96.0625 56.3125V43.0625C96.0625 41.2331 94.5794 39.75 92.75 39.75Z" fill="#6DBF51"/>
<path d="M102.058 54.3913C101.753 53.9631 101.351 53.6137 100.884 53.3718C100.418 53.1299 99.9005 53.0024 99.375 53H6.625C6.09947 53.0024 5.58206 53.1299 5.11551 53.3718C4.64897 53.6137 4.24668 53.9631 3.94187 54.3913C3.63405 54.816 3.4315 55.3077 3.35087 55.826C3.27025 56.3443 3.31386 56.8743 3.47812 57.3725L13.4156 87.185C13.6378 87.8429 14.0612 88.4144 14.6259 88.8186C15.1906 89.2228 15.8681 89.4393 16.5625 89.4375H89.4375C90.132 89.4393 90.8094 89.2228 91.3741 88.8186C91.9388 88.4144 92.3622 87.8429 92.5844 87.185L102.522 57.3725C102.686 56.8743 102.73 56.3443 102.649 55.826C102.569 55.3077 102.366 54.816 102.058 54.3913Z" fill="#DDF9D3"/>
<path d="M33.125 79.5H26.5C25.6215 79.5 24.7789 79.151 24.1577 78.5298C23.5365 77.9086 23.1875 77.066 23.1875 76.1875C23.1875 75.309 23.5365 74.4664 24.1577 73.8452C24.7789 73.224 25.6215 72.875 26.5 72.875H33.125C34.0035 72.875 34.8461 73.224 35.4673 73.8452C36.0885 74.4664 36.4375 75.309 36.4375 76.1875C36.4375 77.066 36.0885 77.9086 35.4673 78.5298C34.8461 79.151 34.0035 79.5 33.125 79.5Z" fill="#6DBF51"/>
</svg>
