<svg width="253" height="190" viewBox="0 0 253 190" fill="none" xmlns="http://www.w3.org/2000/svg">
<g clip-path="url(#clip0_20_346)">
<path d="M250.537 0H143.189C141.829 0 140.726 1.10793 140.726 2.47463V143.197C140.726 144.563 141.829 145.671 143.189 145.671H250.537C251.897 145.671 253 144.563 253 143.197V2.47463C253 1.10793 251.897 0 250.537 0Z" fill="#67993F"/>
<path d="M140.723 16.9492H253V152.39C253 153.046 252.74 153.676 252.278 154.14C251.817 154.604 251.19 154.864 250.537 154.864H143.189C142.536 154.864 141.909 154.604 141.447 154.14C140.985 153.676 140.726 153.046 140.726 152.39V16.9492H140.723Z" fill="white"/>
<path d="M166.562 116.878L167.694 120.384H171.366L168.397 122.55L169.532 126.059L166.562 123.89L163.59 126.059L164.725 122.55L161.755 120.384H165.427L166.562 116.878Z" fill="#FFAC3E"/>
<path d="M179.678 116.878L180.81 120.384H184.482L181.512 122.55L182.647 126.059L179.678 123.89L176.708 126.059L177.843 122.55L174.874 120.384H178.543L179.678 116.878Z" fill="#FFAC3E"/>
<path d="M192.793 116.878L193.929 120.384H197.597L194.628 122.55L195.763 126.059L192.793 123.89L189.824 126.059L190.959 122.55L187.99 120.384H191.661L192.793 116.878Z" fill="#FFAC3E"/>
<path d="M205.912 116.878L207.044 120.384H210.716L207.746 122.55L208.881 126.059L205.912 123.89L202.939 126.059L204.075 122.55L201.105 120.384H204.777L205.912 116.878Z" fill="#FFAC3E"/>
<path d="M219.028 116.878L220.163 120.384H223.831L220.862 122.55L221.997 126.059L219.028 123.89L216.058 126.059L217.193 122.55L214.224 120.384H217.892L219.028 116.878Z" fill="#FFAC3E"/>
<path d="M199.566 93.601C218.704 93.601 234.217 78.0163 234.217 58.7916C234.217 39.5669 218.704 23.9822 199.566 23.9822C180.429 23.9822 164.915 39.5669 164.915 58.7916C164.915 78.0163 180.429 93.601 199.566 93.601Z" fill="white"/>
<mask id="mask0_20_346" style="mask-type:luminance" maskUnits="userSpaceOnUse" x="164" y="23" width="71" height="71">
<path d="M199.566 93.601C218.704 93.601 234.217 78.0163 234.217 58.7916C234.217 39.5669 218.704 23.9822 199.566 23.9822C180.429 23.9822 164.915 39.5669 164.915 58.7916C164.915 78.0163 180.429 93.601 199.566 93.601Z" fill="white"/>
</mask>
<g mask="url(#mask0_20_346)">
<path d="M213.949 94.6827L214.952 69.6836C214.952 69.6836 207.556 67.0385 207.24 67.0385C206.924 67.0385 206.5 57.1488 206.5 57.1488L191.181 58.6359L191.076 66.5977L183.039 70.004L184.9 94.6915L213.949 94.6827Z" fill="#BABABA"/>
<path d="M213.949 95.0676H184.906C184.809 95.0686 184.715 95.0324 184.644 94.9663C184.573 94.9002 184.529 94.8092 184.523 94.712L182.662 70.0245C182.656 69.9437 182.675 69.8631 182.717 69.7939C182.759 69.7248 182.822 69.6708 182.896 69.6395L190.696 66.3419L190.798 58.6153C190.8 58.5207 190.836 58.4299 190.899 58.3601C190.963 58.2903 191.05 58.2462 191.143 58.2362L206.462 56.752C206.514 56.7463 206.567 56.7515 206.617 56.7672C206.667 56.7829 206.713 56.8088 206.752 56.8433C206.792 56.8778 206.824 56.9201 206.847 56.9676C206.869 57.0151 206.882 57.0668 206.883 57.1194C207.03 60.4257 207.322 65.7159 207.521 66.7093C208.349 66.9385 210.886 67.8173 215.081 69.3221C215.158 69.3496 215.224 69.4013 215.27 69.4696C215.316 69.5378 215.339 69.619 215.335 69.7012L214.344 94.6973C214.342 94.7478 214.331 94.7974 214.31 94.8434C214.289 94.8894 214.26 94.9308 214.223 94.9652C214.186 94.9996 214.143 95.0264 214.096 95.044C214.049 95.0616 213.999 95.0696 213.949 95.0676ZM185.26 94.2976H213.58L214.557 69.951C211.804 68.9665 207.58 67.4793 207.199 67.4147H207.182C206.781 67.4147 206.556 67.2618 206.134 57.5661L191.559 58.9798L191.459 66.6211C191.458 66.696 191.436 66.7689 191.394 66.831C191.353 66.8932 191.294 66.9417 191.225 66.9709L183.449 70.2508L185.26 94.2976Z" fill="#233239"/>
<path d="M207.24 67.0325C206.921 67.0325 206.5 57.1428 206.5 57.1428L191.181 58.63L191.076 66.5976L189.101 67.4322C190.93 69.9098 197.802 78.9707 200.265 78.6974C202.413 78.4564 206.594 71.056 208.53 67.4205C208.107 67.2685 207.677 67.139 207.24 67.0325Z" fill="white"/>
<path d="M200.169 79.0971C197.615 79.0971 191.977 71.973 188.794 67.6733C188.759 67.6265 188.735 67.5723 188.724 67.5147C188.712 67.4571 188.715 67.3978 188.73 67.3412C188.746 67.2847 188.774 67.2324 188.812 67.1882C188.851 67.144 188.898 67.1089 188.952 67.0855L190.707 66.3507L190.81 58.6241C190.811 58.5295 190.847 58.4387 190.911 58.3689C190.975 58.2991 191.061 58.255 191.155 58.245L206.474 56.7608C206.526 56.7551 206.578 56.7603 206.628 56.776C206.678 56.7917 206.725 56.8176 206.764 56.8521C206.804 56.8866 206.836 56.9289 206.858 56.9764C206.881 57.0239 206.893 57.0756 206.895 57.1282C207.035 60.4022 207.322 65.6748 207.53 66.7005C207.72 66.7534 208.051 66.8592 208.665 67.0649C208.718 67.0827 208.766 67.1118 208.807 67.1503C208.847 67.1888 208.879 67.2357 208.9 67.2877C208.92 67.3398 208.929 67.3957 208.926 67.4516C208.923 67.5076 208.908 67.5622 208.881 67.6116C206.152 72.7136 202.468 78.8473 200.301 79.0883L200.169 79.0971ZM189.701 67.6057C194.675 74.2889 198.794 78.4799 200.233 78.3212C201.591 78.1714 204.478 74.192 207.986 67.6527C207.439 67.4705 207.272 67.4293 207.223 67.4176C206.79 67.4176 206.561 67.2265 206.143 57.5661L191.568 58.9797L191.468 66.6211C191.467 66.6959 191.444 66.7689 191.403 66.831C191.361 66.8931 191.303 66.9417 191.234 66.9708L189.701 67.6057Z" fill="#233239"/>
<path d="M193.633 58.392L191.178 58.63L191.073 66.6065L189.101 67.4441L201.638 65.422L193.633 58.392Z" fill="#233239"/>
<path d="M189.101 67.8291C189.013 67.8279 188.928 67.7964 188.86 67.7398C188.792 67.6831 188.745 67.6048 188.728 67.5179C188.71 67.4309 188.723 67.3406 188.764 67.2619C188.805 67.1832 188.871 67.121 188.952 67.0855L190.707 66.3508L190.81 58.6242C190.811 58.5296 190.847 58.4388 190.911 58.369C190.975 58.2991 191.061 58.2551 191.155 58.245L193.61 58.007C193.662 58.0024 193.715 58.0084 193.765 58.0245C193.816 58.0407 193.862 58.0667 193.902 58.101L201.892 65.1282C201.947 65.1765 201.987 65.2394 202.008 65.3096C202.028 65.3798 202.029 65.4545 202.009 65.5249C201.989 65.5956 201.949 65.659 201.894 65.7075C201.839 65.756 201.771 65.7875 201.699 65.7983L189.163 67.8203L189.101 67.8291ZM191.559 58.9798L191.459 66.6212C191.461 66.6407 191.461 66.6604 191.459 66.68L200.777 65.1811L193.513 58.8005L191.559 58.9798Z" fill="#233239"/>
<path d="M192.553 33.584C192.553 33.584 190.441 33.4752 190.02 34.0072C189.599 34.5391 184.947 41.8602 185.266 43.1357C185.585 44.4112 187.167 47.3796 187.167 47.3796L188.434 51.9439L189.385 44.3025L194.56 39.2063L206.184 42.7095L207.354 48.8667L208.2 49.0783C208.2 49.0783 208.621 46.4332 208.726 46.0012C208.832 45.5692 210.733 38.783 210.207 37.2959C209.68 35.8088 197.951 30.8301 195.944 31.0359C193.937 31.2416 192.553 33.584 192.553 33.584Z" fill="#233239"/>
<path d="M188.434 52.3288C188.349 52.3285 188.266 52.2993 188.199 52.246C188.132 52.1927 188.085 52.1184 188.066 52.0349L186.808 47.5118C186.614 47.1444 185.201 44.4582 184.891 43.215C184.502 41.6426 189.467 34.0718 189.719 33.7544C190.169 33.1901 191.647 33.1666 192.352 33.1666C192.752 32.5788 194.06 30.8154 195.897 30.6273C197.89 30.4069 209.94 35.4149 210.561 37.143C210.909 38.1217 210.435 41.049 209.154 45.8395L209.092 46.0688C209.01 46.4038 208.688 48.3817 208.571 49.1165C208.563 49.169 208.543 49.2192 208.515 49.2639C208.486 49.3086 208.448 49.3468 208.404 49.376C208.36 49.4053 208.31 49.4251 208.257 49.434C208.205 49.4429 208.152 49.4409 208.1 49.428L207.255 49.2164C207.183 49.2007 207.117 49.1646 207.066 49.1125C207.014 49.0604 206.978 48.9945 206.962 48.9225L205.859 43.0122L194.677 39.6412L189.757 44.4817L188.823 51.9908C188.812 52.0791 188.771 52.1608 188.707 52.2223C188.643 52.2838 188.56 52.3214 188.472 52.3288H188.434ZM192.109 33.9572C191.252 33.9572 190.456 34.0806 190.321 34.2511C189.704 35.027 185.397 42.0688 185.64 43.0445C185.933 44.2554 187.492 47.1591 187.507 47.2003C187.52 47.2254 187.531 47.252 187.539 47.2796L188.305 49.9923L189.005 44.2613C189.014 44.1742 189.053 44.0931 189.116 44.032L194.294 38.9388C194.343 38.8899 194.403 38.8553 194.47 38.8387C194.536 38.8221 194.606 38.8242 194.672 38.8447L206.292 42.3451C206.359 42.3654 206.419 42.4034 206.466 42.4552C206.513 42.5069 206.545 42.5704 206.558 42.639L207.676 48.5522L207.878 48.6022C208.001 47.8322 208.261 46.251 208.346 45.9071L208.41 45.6632C210.098 39.3561 209.97 37.8014 209.835 37.434C209.405 36.2231 197.887 31.2357 195.976 31.4267C194.18 31.6177 192.899 33.7779 192.884 33.7779C192.849 33.8386 192.798 33.8885 192.736 33.9222C192.675 33.9559 192.606 33.972 192.536 33.9689C192.401 33.9748 192.246 33.9572 192.109 33.9572Z" fill="#233239"/>
<path d="M188.434 50.4567C188.434 50.4567 186.533 46.9564 186.003 50.5625C185.473 54.1687 189.069 55.7645 189.069 55.7645L188.434 50.4567Z" fill="white"/>
<path d="M189.069 56.1495C189.016 56.149 188.963 56.138 188.914 56.1172C188.873 56.0995 185.061 54.3538 185.626 50.5066C185.737 49.7366 185.977 48.6962 186.737 48.5581C187.668 48.3905 188.531 49.8277 188.785 50.2715C188.809 50.3153 188.824 50.3632 188.829 50.4126L189.449 55.7233C189.458 55.7908 189.448 55.8594 189.421 55.9219C189.395 55.9844 189.352 56.0387 189.297 56.0789C189.23 56.1259 189.151 56.1506 189.069 56.1495ZM186.895 49.3163H186.872C186.767 49.334 186.527 49.6308 186.383 50.6154C186.032 53.0165 187.656 54.4361 188.598 55.0562L188.063 50.5742C187.682 49.9041 187.135 49.3163 186.895 49.3163Z" fill="#233239"/>
<path d="M207.345 48.8667C207.345 48.8667 209.142 46.9563 209.668 49.2899C210.195 51.6234 207.872 54.4889 207.872 54.4889L207.345 48.8667Z" fill="white"/>
<path d="M207.872 54.8769C207.777 54.8759 207.686 54.8397 207.615 54.7751C207.545 54.7106 207.501 54.6223 207.492 54.5272L206.962 48.9019C206.959 48.8485 206.966 48.7949 206.983 48.7444C207.001 48.6939 207.029 48.6475 207.065 48.608C207.17 48.4993 208.097 47.5441 208.996 47.7939C209.51 47.935 209.873 48.4111 210.043 49.2135C210.608 51.7028 208.27 54.6183 208.171 54.7417C208.134 54.7848 208.088 54.8193 208.036 54.8427C207.985 54.866 207.929 54.8777 207.872 54.8769ZM207.743 49.0136L208.156 53.4221C208.773 52.4434 209.619 50.777 209.294 49.3839C209.233 49.09 209.08 48.6169 208.794 48.5375C208.507 48.4582 208.015 48.7668 207.743 49.0136Z" fill="#233239"/>
<path d="M188.013 44.9373C188.013 44.9373 189.388 57.0371 189.599 57.9923C189.809 58.9475 197.205 65.2105 197.629 65.5279C198.054 65.8453 200.587 66.2715 201.643 65.4221C202.7 64.5727 207.664 57.3546 207.875 56.7197C208.086 56.0849 207.138 41.2254 207.138 41.2254L201.219 38.5803C201.219 38.5803 202.594 40.279 201.538 40.3848C200.482 40.4906 194.449 36.9785 194.449 36.9785L188.013 44.9373Z" fill="white"/>
<path d="M199.715 66.3037C198.691 66.3037 197.706 66.0627 197.407 65.8393C197.328 65.7806 189.508 59.2824 189.233 58.0804C189.019 57.1164 187.697 45.4809 187.641 44.9842C187.634 44.932 187.638 44.8788 187.652 44.8282C187.667 44.7775 187.692 44.7305 187.726 44.6903L194.163 36.7286C194.22 36.6581 194.301 36.6105 194.391 36.5943C194.48 36.5782 194.573 36.5945 194.651 36.6404C197.559 38.3304 200.915 40.0467 201.5 39.985C201.527 39.984 201.554 39.9781 201.579 39.9674C201.443 39.5339 201.219 39.1336 200.921 38.7918C200.869 38.7241 200.841 38.6411 200.841 38.5558C200.842 38.4705 200.87 38.3877 200.923 38.3204C200.975 38.2531 201.048 38.2052 201.13 38.1841C201.212 38.163 201.299 38.17 201.377 38.204L207.293 40.8491C207.357 40.8775 207.411 40.923 207.451 40.9805C207.491 41.038 207.514 41.1054 207.518 41.1753C207.743 44.6786 208.457 56.1642 208.241 56.8166C208.004 57.5279 203.03 64.7754 201.883 65.6983C201.345 66.1509 200.514 66.3037 199.715 66.3037ZM188.422 45.0577C188.902 49.281 189.821 57.1811 189.982 57.9129C190.274 58.7593 197.079 64.6285 197.866 65.2221C198.188 65.4543 200.514 65.8452 201.412 65.1222C202.401 64.3287 207.264 57.278 207.521 56.5991C207.641 55.9673 207.147 47.3002 206.778 41.4839L202.205 39.4266C202.34 39.7009 202.363 40.0172 202.269 40.3083C202.211 40.4421 202.115 40.5561 201.994 40.6368C201.872 40.7176 201.73 40.7617 201.585 40.7638C200.535 40.8667 196.026 38.3274 194.563 37.4839L188.422 45.0577Z" fill="#233239"/>
<path d="M191.603 45.2194C191.511 45.2186 191.423 45.1852 191.354 45.1253C191.315 45.0926 191.284 45.0525 191.261 45.0073C191.238 44.9621 191.224 44.9127 191.22 44.8621C191.216 44.8115 191.222 44.7606 191.238 44.7124C191.254 44.6643 191.28 44.6198 191.313 44.5816C193.379 42.1599 196.383 43.5148 196.412 43.5265C196.497 43.5744 196.56 43.6524 196.59 43.745C196.62 43.8376 196.614 43.9381 196.573 44.0265C196.533 44.115 196.461 44.1849 196.371 44.2224C196.282 44.2599 196.182 44.2622 196.091 44.2289C195.991 44.1819 193.58 43.1092 191.895 45.0842C191.859 45.1264 191.814 45.1603 191.764 45.1836C191.713 45.2069 191.658 45.2191 191.603 45.2194Z" fill="#233239"/>
<path d="M204.493 44.5816C204.394 44.5816 204.299 44.5438 204.227 44.4758C202.202 42.5331 200.295 44.2936 200.213 44.37C200.139 44.4401 200.04 44.4779 199.938 44.4748C199.836 44.4718 199.74 44.4283 199.67 44.3538C199.6 44.2794 199.563 44.1801 199.566 44.0779C199.569 43.9756 199.612 43.8788 199.686 43.8086C199.71 43.7851 202.199 41.4574 204.756 43.9174C204.792 43.9529 204.821 43.9953 204.84 44.0419C204.859 44.0886 204.869 44.1387 204.869 44.1892C204.869 44.2398 204.859 44.2899 204.84 44.3366C204.821 44.3832 204.792 44.4256 204.756 44.4611C204.687 44.5338 204.593 44.5769 204.493 44.5816Z" fill="#233239"/>
<path d="M198.607 53.2929H198.46C198.21 53.2839 197.965 53.2153 197.745 53.0927C197.526 52.97 197.339 52.7969 197.199 52.5875C197.152 52.5023 197.138 52.4022 197.161 52.3072C197.184 52.2122 197.241 52.1294 197.322 52.0752C197.403 52.021 197.501 51.9995 197.597 52.0149C197.693 52.0303 197.78 52.0816 197.84 52.1584C197.915 52.2692 198.016 52.3602 198.134 52.4237C198.251 52.4871 198.382 52.5211 198.516 52.5228C198.855 52.5214 199.189 52.4466 199.497 52.3036C199.804 52.1606 200.077 51.9527 200.298 51.6941C200.646 51.2973 200.514 51.1474 200.195 50.7888C200 50.6054 199.858 50.3716 199.786 50.1129C199.677 49.5721 199.493 45.7191 199.461 45.2812C199.456 45.1791 199.491 45.0791 199.56 45.0033C199.628 44.9276 199.724 44.8821 199.825 44.8771C199.927 44.872 200.026 44.9077 200.102 44.9763C200.177 45.0449 200.222 45.1409 200.227 45.243C200.312 46.9388 200.464 49.5956 200.538 49.963C200.597 50.0786 200.675 50.1838 200.769 50.2745C201.085 50.6331 201.676 51.2973 200.871 52.2054C200.585 52.5298 200.238 52.7933 199.849 52.9801C199.46 53.1669 199.037 53.2732 198.607 53.2929Z" fill="#233239"/>
<path d="M198.639 56.8167C196.266 56.8167 194.268 54.7447 194.177 54.6507C194.142 54.614 194.115 54.5708 194.097 54.5236C194.079 54.4764 194.07 54.426 194.071 54.3754C194.073 54.3247 194.084 54.2748 194.104 54.2285C194.125 54.1822 194.154 54.1404 194.19 54.1055C194.227 54.0706 194.27 54.0432 194.317 54.025C194.364 54.0067 194.414 53.998 194.464 53.9992C194.515 54.0004 194.565 54.0116 194.611 54.0321C194.657 54.0526 194.698 54.0821 194.733 54.1187C194.754 54.1393 196.854 56.3112 199.054 56.0173C201.254 55.7234 202.899 53.5427 202.913 53.5192C202.976 53.4435 203.065 53.3947 203.162 53.3826C203.26 53.3705 203.358 53.396 203.437 53.4539C203.516 53.5118 203.571 53.5979 203.589 53.6946C203.608 53.7913 203.589 53.8914 203.536 53.9747C203.463 54.0746 201.717 56.4464 199.148 56.7815C198.979 56.8045 198.809 56.8163 198.639 56.8167Z" fill="#233239"/>
<path d="M194.879 47.5911C194.879 48.2377 194.549 48.7667 194.139 48.7667C193.73 48.7667 193.399 48.2465 193.399 47.5911C193.399 46.9357 193.73 46.4155 194.139 46.4155C194.549 46.4155 194.879 46.9475 194.879 47.5911Z" fill="#233239"/>
<path d="M203.647 47.5911C203.647 48.2377 203.317 48.7667 202.907 48.7667C202.498 48.7667 202.167 48.2465 202.167 47.5911C202.167 46.9357 202.501 46.4155 202.907 46.4155C203.314 46.4155 203.647 46.9475 203.647 47.5911Z" fill="#233239"/>
<path d="M191.377 94.6826C191.214 79.3999 191.085 66.6064 191.085 66.6064C191.085 66.6064 173.677 73.5307 173.01 73.6101C171.84 73.7541 171.571 84.7253 170.43 94.6826H191.377Z" fill="#67993F"/>
<path d="M191.377 95.0676H170.43C170.375 95.0689 170.32 95.058 170.269 95.0356C170.219 95.0133 170.174 94.9801 170.137 94.9383C170.102 94.8987 170.075 94.8521 170.058 94.8015C170.042 94.751 170.036 94.6975 170.041 94.6444C170.439 91.1705 170.734 87.5468 170.992 84.3579C171.702 75.5968 171.989 73.3602 172.958 73.2427C173.584 73.1192 184.049 68.9988 190.927 66.2626C190.985 66.239 191.048 66.2302 191.11 66.2367C191.172 66.2433 191.232 66.265 191.284 66.3001C191.336 66.3352 191.379 66.3825 191.408 66.438C191.438 66.4934 191.453 66.5553 191.453 66.6182L191.746 94.6944C191.746 94.7452 191.737 94.7956 191.718 94.8426C191.699 94.8897 191.67 94.9325 191.635 94.9685C191.599 95.0046 191.557 95.0332 191.51 95.0527C191.463 95.0723 191.413 95.0823 191.363 95.0823L191.377 95.0676ZM170.857 94.2976H190.988L190.696 67.1707C186.966 68.6549 174.262 73.6982 173.113 73.9833C172.563 74.5535 172.138 79.7849 171.764 84.4079C171.515 87.4792 171.234 90.9442 170.857 94.2976Z" fill="#233239"/>
<path d="M183.996 76.1582C184.485 77.0164 186.837 86.668 188.738 94.6739H191.231L191.076 66.5977C190.231 64.6873 179.452 69.8893 179.031 70.63C178.61 71.3706 183.15 74.674 183.996 76.1582Z" fill="#67993F"/>
<path d="M191.231 95.0677H188.741C188.655 95.0681 188.571 95.0394 188.503 94.9861C188.435 94.9327 188.387 94.8579 188.367 94.7738C184.765 79.6056 183.876 76.7195 183.665 76.3492C183.323 75.7467 182.246 74.7533 181.205 73.7952C179.251 71.9966 178.329 71.1031 178.701 70.4477C179.18 69.6072 187.393 65.6542 190.228 65.807C190.851 65.8394 191.255 66.0539 191.43 66.4507C191.451 66.4989 191.462 66.5509 191.462 66.6035L191.614 94.6797C191.614 94.7827 191.574 94.8816 191.503 94.956C191.43 95.0272 191.333 95.0673 191.231 95.0677ZM189.043 94.2976H190.845L190.696 66.7181C190.595 66.6471 190.476 66.6054 190.353 66.5976C188.068 66.289 180.283 69.9951 179.403 70.8063C179.555 71.2354 180.866 72.4286 181.723 73.2309C182.858 74.2772 183.929 75.2647 184.332 75.973C184.736 76.6813 186.322 82.8503 189.04 94.2976H189.043Z" fill="#233239"/>
<path d="M228.749 94.6826C228.088 84.5754 225.751 73.7276 225.408 73.6101C224.773 73.3985 207.343 66.6064 207.343 66.6064C207.343 66.6064 207.205 79.4028 207.05 94.6826H228.749Z" fill="#67993F"/>
<path d="M228.749 95.0676H207.03C206.926 95.0676 206.827 95.0263 206.754 94.953C206.719 94.917 206.692 94.8743 206.673 94.8273C206.654 94.7804 206.645 94.7302 206.646 94.6797L206.939 66.6035C206.939 66.5414 206.954 66.4803 206.983 66.4255C207.013 66.3707 207.054 66.3239 207.106 66.289C207.157 66.2532 207.216 66.2306 207.277 66.2234C207.339 66.2163 207.402 66.2247 207.46 66.2479C213.486 68.5991 225.013 73.081 225.508 73.2456C226.324 73.5189 228.542 85.9421 229.112 94.6562C229.116 94.7098 229.108 94.7635 229.09 94.8141C229.072 94.8646 229.043 94.9109 229.007 94.9501C228.939 95.0211 228.847 95.0632 228.749 95.0676ZM207.427 94.2976H228.337C227.69 85.0133 225.651 75.1207 225.168 73.9451C223.612 73.3573 210.564 68.2846 207.735 67.1854L207.427 94.2976Z" fill="#233239"/>
<path d="M209.68 94.6826C211.582 86.668 213.934 77.0163 214.42 76.167C215.265 74.6975 219.809 71.3911 219.393 70.6475C218.978 69.904 208.2 64.6961 207.343 66.5976L207.19 94.6738L209.68 94.6826Z" fill="#67993F"/>
<path d="M209.68 95.0677H207.19C207.089 95.0673 206.991 95.0272 206.918 94.956C206.883 94.9196 206.854 94.8764 206.835 94.829C206.816 94.7816 206.807 94.7308 206.807 94.6797L206.959 66.6035C206.96 66.5509 206.97 66.4989 206.991 66.4507C207.167 66.0539 207.577 65.8394 208.191 65.807C211.008 65.6542 219.241 69.6072 219.721 70.4477C220.092 71.1031 219.168 71.9966 217.217 73.7952C216.175 74.7533 215.098 75.7467 214.753 76.3492C214.545 76.7195 213.653 79.6056 210.055 94.7738C210.034 94.8579 209.986 94.9327 209.918 94.9861C209.85 95.0394 209.766 95.0681 209.68 95.0677ZM207.577 94.2976H209.37C212.091 82.8503 213.677 76.6813 214.083 75.9671C214.49 75.253 215.546 74.2713 216.693 73.2251C217.571 72.4198 218.872 71.2177 219.013 70.7945C218.22 70.0304 210.359 66.2773 208.062 66.5918C207.938 66.6002 207.82 66.644 207.72 66.7181L207.577 94.2976Z" fill="#233239"/>
</g>
<path d="M199.566 93.601C218.704 93.601 234.217 78.0163 234.217 58.7916C234.217 39.5669 218.704 23.9822 199.566 23.9822C180.429 23.9822 164.915 39.5669 164.915 58.7916C164.915 78.0163 180.429 93.601 199.566 93.601Z" stroke="#67993F" stroke-miterlimit="10"/>
<path d="M205.412 99.9904H160.843V103.511H205.412V99.9904Z" fill="#CDD1D2"/>
<path d="M229.504 99.9904H208.419V103.511H229.504V99.9904Z" fill="#CDD1D2"/>
<path d="M192.796 107.823H160.843V111.344H192.796V107.823Z" fill="#CDD1D2"/>
<path d="M229.504 107.823H197.55V111.344H229.504V107.823Z" fill="#CDD1D2"/>
<path d="M228.937 132.222H161.41C161.097 132.222 160.843 132.478 160.843 132.793V148.748C160.843 149.063 161.097 149.319 161.41 149.319H228.937C229.25 149.319 229.504 149.063 229.504 148.748V132.793C229.504 132.478 229.25 132.222 228.937 132.222Z" fill="#233239"/>
<path d="M175.681 145V137H176.411V140.668H180.95V137H181.681V145H180.95V141.324H176.411V145H175.681ZM184.532 137V145H183.802V137H184.532ZM186.659 145V137H189.241C189.809 137 190.283 137.103 190.663 137.309C191.046 137.512 191.334 137.794 191.526 138.156C191.722 138.516 191.819 138.928 191.819 139.395C191.819 139.861 191.722 140.272 191.526 140.629C191.334 140.986 191.047 141.264 190.667 141.465C190.287 141.665 189.815 141.766 189.253 141.766H187.054V141.098H189.233C189.65 141.098 189.996 141.029 190.272 140.891C190.551 140.753 190.758 140.556 190.894 140.301C191.032 140.046 191.101 139.743 191.101 139.395C191.101 139.046 191.032 138.741 190.894 138.48C190.756 138.217 190.547 138.014 190.269 137.871C189.993 137.728 189.644 137.656 189.222 137.656H187.39V145H186.659ZM190.187 141.391L192.155 145H191.312L189.362 141.391H190.187ZM193.599 145V137H198.239V137.656H194.329V140.668H197.993V141.324H194.329V144.344H198.317V145H193.599ZM203.224 137H204.067L206.97 143.969H207.04L209.942 137H210.786V145H210.099V138.543H210.036L207.337 145H206.673L203.974 138.543H203.911V145H203.224V137ZM212.913 145V137H217.554V137.656H213.644V140.668H217.308V141.324H213.644V144.344H217.632V145H212.913Z" fill="white"/>
<path d="M25.2453 82.6004C25.2453 82.6004 30.804 69.948 24.3676 70.9973C24.3676 70.9973 22.1734 72.8194 19.9177 76.5343C18.2121 79.3469 14.6516 86.7943 14.7949 89.3131C14.9383 91.8318 16.6966 93.7068 18.6187 97.7509C18.6187 97.7509 22.621 105.257 22.7877 106.162L27.0211 103.955C27.0211 103.955 23.4343 96.7781 20.9066 90.4681L25.2453 82.6004Z" fill="#67993F"/>
<path d="M8.71792 147.628L78.2629 96.1204L69.5459 84.2428L0.000840713 135.75L8.71792 147.628Z" fill="white"/>
<path d="M77.2086 94.6916L80.9246 91.9395L74.3082 82.9242L70.5923 85.6764L77.2086 94.6916Z" fill="white"/>
<path d="M57.4243 189.782H58.4746C58.4746 189.782 58.1235 185.803 59.0949 185.765C60.0662 185.727 62.474 188.998 63.9104 189.509C65.3469 190.021 72.7283 190.447 72.7663 189.08C72.8044 187.713 69.9314 187.17 69.0362 186.779C68.1409 186.388 63.7934 182.135 63.0181 181.63C62.2428 181.124 60.9146 177.594 60.9146 177.594L56.7953 177.412C56.7953 177.412 56.5642 180.71 56.3155 182.453C56.23 182.994 56.1724 183.539 56.1429 184.087C56.1049 185.571 57.4243 189.782 57.4243 189.782Z" fill="#EEA886"/>
<path d="M30.8888 188.995H31.7665V185.292C32.495 185.353 34.9438 187.681 35.7015 188.354C36.4592 189.027 37.4949 188.995 40.6751 189.201C43.8552 189.406 44.1654 187.484 43.6592 186.832C43.1531 186.179 41.5235 185.894 40.6751 185.486C39.8266 185.077 36.4768 181.283 35.5815 180.387C34.6863 179.49 34.1451 176.916 34.1451 176.916L30.4149 177.242C30.424 178.693 30.2947 180.142 30.0287 181.568C29.9936 181.736 29.9526 181.9 29.9087 182.062C29.3441 184.128 30.8888 188.995 30.8888 188.995Z" fill="#EEA886"/>
<path d="M44.6744 105.037C44.6744 105.037 46.0817 108.384 46.2075 109.231C46.3333 110.077 49.6305 118.086 50.5959 123.485C51.181 126.718 52.7433 136.84 52.8721 138.124C53.0915 140.325 54.1213 145.177 54.2822 147.438C54.37 148.695 60.5343 167.993 62.0264 178.071C62.0264 178.071 58.4805 178.597 55.8182 177.891C55.8182 177.891 50.4057 167.476 47.4011 152.704C45.5902 143.808 43.9898 139.064 42.5885 135.399C41.1871 131.734 33.2469 121.36 32.4043 120.193C31.5617 119.026 26.3834 112.584 31.3014 105.604C36.2194 98.6238 44.6744 105.037 44.6744 105.037Z" fill="#232928"/>
<path d="M26.9217 134.685C27.3722 137.689 26.8983 141.639 25.9591 152.613C25.02 163.587 27.6033 176.904 27.6033 176.904C30.8508 178.021 34.5868 176.904 34.5868 176.904C34.502 176.131 34.5868 150.124 34.5868 147.808C34.5868 145.492 35.2509 142.859 35.4206 140.199C35.5377 138.385 36.3773 135.044 37.3223 131.632C37.6149 130.609 37.9074 129.574 38.1824 128.587C38.3404 128.031 38.4984 127.482 38.6505 126.95C39.9817 122.315 41.7693 104.419 41.7693 104.419C41.7693 104.419 31.8543 96.396 27.027 103.949C22.1997 111.502 24.6865 116.995 24.8474 117.939C25.0083 118.882 26.4711 131.682 26.9217 134.685Z" fill="#232928"/>
<path d="M31.0322 118.544C31.1083 118.715 36.0497 129.733 37.3223 131.643C37.6149 130.621 37.9074 129.586 38.1824 128.599C38.1824 128.599 31.199 118.785 31.0322 118.544Z" fill="#191E1D"/>
<path d="M30.8888 188.995H31.7665V185.292C32.495 185.353 34.9438 187.681 35.7015 188.354C36.4593 189.027 37.4949 188.995 40.6751 189.201C43.8553 189.406 44.1654 187.484 43.6592 186.832C43.1531 186.179 41.5235 185.894 40.6751 185.486C37.2638 185.671 33.0977 180.851 31.0995 180.86C30.0375 180.86 30.0492 181.448 30.0141 181.568C29.979 181.736 29.938 181.9 29.8941 182.062C29.3441 184.128 30.8888 188.995 30.8888 188.995Z" fill="#232928"/>
<path d="M57.4243 189.783H58.4746C58.4746 189.783 58.1235 185.803 59.0949 185.765C60.0662 185.727 62.474 188.998 63.9104 189.509C65.3469 190.021 72.7283 190.447 72.7663 189.08C72.8044 187.713 69.9314 187.17 69.0362 186.779C65.9935 186.779 61.0433 183.408 59.5103 182.726C58.4952 182.322 57.384 182.227 56.3155 182.453C56.23 182.994 56.1724 183.539 56.1429 184.087C56.1049 185.571 57.4243 189.783 57.4243 189.783Z" fill="#232928"/>
<path d="M35.918 63.0208C35.918 63.0208 34.3352 67.2265 35.5669 70.477C35.5669 70.477 29.7654 70.0979 29.546 69.419C29.3265 68.7401 29.78 62.4359 28.9813 60.5755C28.1826 58.7152 35.918 63.0208 35.918 63.0208Z" fill="#EEA886"/>
<path d="M36.4797 69.0545C36.4797 69.0545 39.9086 70.2801 41.4533 70.621C42.998 70.9619 46.2455 72.502 45.9822 78.3094C45.7189 84.1169 44.7505 89.1514 44.3994 91.6466C44.0483 94.1418 44.2678 100.493 44.8383 103.576C38.9394 104.822 32.8469 104.822 26.948 103.576C26.948 103.576 28.6624 98.3151 28.6186 96.9544C28.5747 95.5936 22.9048 84.3873 22.6415 82.618C22.3782 80.8487 21.2343 73.0457 23.8293 71.3234C26.4243 69.6012 28.5308 69.8275 29.6308 69.0545C30.7309 68.2816 34.8765 68.502 36.4797 69.0545Z" fill="#67993F"/>
<path d="M23.25 112.702C37.2931 116.443 48.4661 112.702 48.4661 112.702C47.5002 110.702 46.7273 108.613 46.1577 106.465C45.786 105.088 45.4929 103.691 45.28 102.28C44.1361 94.5974 45.6253 88.7106 45.6253 88.7106C44.0045 75.3117 23.8205 71.3117 22.2026 75.5586C20.5848 79.8054 25.336 98.0625 25.5759 99.6289C25.8158 101.195 23.25 112.702 23.25 112.702Z" fill="#67993F"/>
<path d="M30.8625 46.1481C33.203 45.3457 39.499 44.4905 41.1022 54.2097C42.7055 63.929 39.2006 64.0994 35.5845 63.8232C31.9684 63.5469 26.319 56.9841 25.886 54.9886C25.453 52.993 24.2067 48.4434 30.8625 46.1481Z" fill="#EEA886"/>
<path d="M39.8149 49.8835C39.8149 49.8835 37.8899 54.0216 35.3621 55.4676C35.3621 55.4676 33.7794 59.8761 30.3534 61.6395C30.3534 61.6395 21.2606 55.5881 26.5355 48.3963C31.8104 41.2046 39.2181 46.9327 39.8149 49.8835Z" fill="#232928"/>
<path d="M35.5874 54.0305C35.3826 53.5221 34.0193 52.7021 33.4078 54.0893C32.7964 55.4765 35.0023 57.9188 35.5874 57.7807C36.1725 57.6425 36.3627 55.9467 35.5874 54.0305Z" fill="#EEA886"/>
<path d="M26.8456 49.5073C26.6467 49.1958 20.6228 46.3949 19.3706 52.2465C18.1184 58.098 24.2213 64.9047 25.2892 67.8231C26.357 70.7415 24.8064 77.607 24.8064 77.607C24.8064 77.607 28.4781 74.1214 29.5898 70.4711C30.8098 66.4682 31.2194 56.361 26.8456 49.5073Z" fill="#232928"/>
<path d="M26.5414 49.3075C26.5414 49.3075 28.3845 50.777 28.6215 53.0841C28.6215 53.0841 28.9667 51.2825 28.2236 50.1804C27.4805 49.0783 26.5414 49.3075 26.5414 49.3075Z" fill="#232928"/>
<path d="M46.1548 106.477C45.7827 105.101 45.4897 103.704 45.2771 102.295C45.2771 102.295 44.3497 100.32 44.0395 99.3733C43.7294 98.4269 41.4065 86.812 41.4065 86.812C41.4065 86.812 38.9548 97.7186 46.1548 106.477Z" fill="#1D3B54"/>
<path d="M56.4911 107.156C56.4911 107.156 58.305 108.963 58.8901 109.142C59.4752 109.322 60.6045 108.325 64.7618 108.014C65.1275 107.987 65.7683 108.308 65.6161 108.801C65.464 109.295 63.6559 110.603 62.8807 110.806C62.1054 111.009 58.4512 112.466 56.6725 111.749C54.8937 111.032 53.6795 108.757 53.6795 108.757L56.4911 107.156Z" fill="#EEA886"/>
<path d="M42.4275 70.9385C42.4275 70.9385 47.2343 72.8518 47.5181 79.5674C47.8019 86.283 48.0652 89.7862 48.3256 90.8208C48.586 91.8553 49.0863 96.0228 50.2975 98.5298C51.4677 100.96 59.1768 108.655 59.1768 108.655L55.4466 112.181C55.4466 112.181 44.7037 101.354 44.0513 99.3732C43.3988 97.3924 40.716 83.6144 40.5025 81.2926C40.3269 79.4204 37.8694 71.0766 42.4275 70.9385Z" fill="#67993F"/>
<path opacity="0.1" d="M150.361 86.3314C168.143 68.4678 168.143 39.5053 150.361 21.6417C132.578 3.7782 103.748 3.7782 85.9653 21.6418C68.1829 39.5053 68.1829 68.4678 85.9652 86.3314C103.748 104.195 132.578 104.195 150.361 86.3314Z" fill="#B8B8B8"/>
<path opacity="0.3" d="M76.3649 37.7749C76.3649 37.7749 125.068 5.01982 163.037 54.8563C163.262 44.2553 159.756 33.9144 153.136 25.6553C146.517 17.3962 137.208 11.7485 126.85 9.70719C116.492 7.66585 105.75 9.36176 96.5144 14.4962C87.2791 19.6306 80.1437 27.8742 76.3649 37.7749Z" fill="#869AC2"/>
<path d="M94.1147 6.02492C67.746 19.3679 57.1376 51.6616 70.4171 78.1478C83.6965 104.634 115.843 115.294 142.215 101.954C154.878 95.546 164.489 84.3475 168.933 70.8215C173.377 57.2956 172.29 42.5502 165.911 29.8293C159.533 17.1084 148.385 7.45385 134.921 2.98967C121.456 -1.47452 106.778 -0.382707 94.1147 6.02492ZM138.292 94.1389C130.385 98.1417 121.475 99.6992 112.687 98.6146C103.9 97.5299 95.6299 93.8517 88.9234 88.0452C82.2169 82.2387 77.3751 74.5647 75.0103 65.9938C72.6456 57.4228 72.8642 48.3399 75.6384 39.8937C78.4126 31.4475 83.6179 24.0175 90.5959 18.5433C97.5738 13.0691 106.011 9.79668 114.841 9.13983C123.67 8.48297 132.495 10.4712 140.2 14.8531C147.904 19.235 154.142 25.8137 158.125 33.7573C163.464 44.4052 164.376 56.7477 160.659 68.0708C156.942 79.3938 148.901 88.7705 138.303 94.1389H138.292Z" fill="#CDD1D2"/>
</g>
<defs>
<clipPath id="clip0_20_346">
<rect width="253" height="190" fill="white"/>
</clipPath>
</defs>
</svg>
