<svg width="24" height="24" viewBox="0 0 24 24" fill="none" xmlns="http://www.w3.org/2000/svg">
<path d="M12 2.5C10.1211 2.5 8.28435 3.05717 6.72209 4.10104C5.15982 5.14491 3.94218 6.62861 3.22315 8.36451C2.50412 10.1004 2.31598 12.0105 2.68254 13.8534C3.0491 15.6962 3.95389 17.3889 5.28249 18.7175C6.61109 20.0461 8.30383 20.9509 10.1466 21.3175C11.9895 21.684 13.8996 21.4959 15.6355 20.7769C17.3714 20.0578 18.8551 18.8402 19.899 17.2779C20.9428 15.7157 21.5 13.8789 21.5 12C21.4971 9.48134 20.4953 7.06667 18.7143 5.2857C16.9333 3.50474 14.5187 2.50291 12 2.5ZM11.5 6C11.7967 6 12.0867 6.08797 12.3334 6.2528C12.58 6.41762 12.7723 6.65189 12.8858 6.92597C12.9994 7.20006 13.0291 7.50166 12.9712 7.79264C12.9133 8.08361 12.7704 8.35088 12.5607 8.56066C12.3509 8.77044 12.0836 8.9133 11.7926 8.97118C11.5017 9.02906 11.2001 8.99935 10.926 8.88582C10.6519 8.77229 10.4176 8.58003 10.2528 8.33335C10.088 8.08668 10 7.79667 10 7.5C10 7.10218 10.158 6.72064 10.4393 6.43934C10.7206 6.15804 11.1022 6 11.5 6ZM14 17H10C9.73479 17 9.48043 16.8946 9.2929 16.7071C9.10536 16.5196 9 16.2652 9 16C9 15.7348 9.10536 15.4804 9.2929 15.2929C9.48043 15.1054 9.73479 15 10 15H11V12H10C9.73479 12 9.48043 11.8946 9.2929 11.7071C9.10536 11.5196 9 11.2652 9 11C9 10.7348 9.10536 10.4804 9.2929 10.2929C9.48043 10.1054 9.73479 10 10 10H12C12.2652 10 12.5196 10.1054 12.7071 10.2929C12.8946 10.4804 13 10.7348 13 11V15H14C14.2652 15 14.5196 15.1054 14.7071 15.2929C14.8946 15.4804 15 15.7348 15 16C15 16.2652 14.8946 16.5196 14.7071 16.7071C14.5196 16.8946 14.2652 17 14 17Z" fill="#B8B8B8"/>
</svg>
