<svg width="30" height="22" viewBox="0 0 30 22" fill="none" xmlns="http://www.w3.org/2000/svg">
<path d="M22.5006 11.2264C23.3101 11.2433 24.1242 11.1919 24.9304 11.2531C25.7469 11.4 25.9437 12.592 25.2183 12.9824C24.7234 13.2396 24.1354 13.0782 23.5988 13.1235H22.5006V11.2264ZM25.3985 9.07899C25.5783 9.69116 24.9664 10.2408 24.355 10.1565H22.5006C22.5136 9.5792 22.4752 8.9526 22.5194 8.40568C23.2623 8.42586 24.012 8.36453 24.7506 8.43775C25.0679 8.51464 25.3335 8.76622 25.3985 9.07899ZM29.8613 0.000530906C29.8958 1.16964 29.8663 2.40054 29.8762 3.59337C29.8739 8.44296 29.881 13.2924 29.8722 18.1423C29.8397 19.9598 28.1694 21.5391 26.2978 21.5753C24.4243 21.5827 22.5506 21.5765 20.6769 21.5785V14.2469C22.7184 14.2367 24.7609 14.2675 26.8016 14.2315C27.7482 14.1742 28.7851 13.5719 28.8292 12.5672C28.9407 11.5582 27.9542 10.8603 27.0177 10.7501C26.6577 10.7411 26.6682 10.6489 27.0177 10.6087C27.9109 10.4225 28.6124 9.53097 28.3496 8.63809C28.1256 7.69898 27.0493 7.33551 26.154 7.33731C24.3286 7.32536 22.5028 7.33564 20.6773 7.33217C20.6891 5.96345 20.6527 4.59327 20.6969 3.22555C20.8416 1.44086 22.5539 -0.0309333 24.3992 0.000998266C26.2201 0.000731056 28.0408 0.00073124 29.8613 0.000664437V0.000530906Z" fill="url(#paint0_linear_20_1734)"/>
<path d="M0.048555 3.41073C0.0951744 1.59611 1.77257 0.0297889 3.64178 0.00326835C5.50829 -0.00227626 7.37507 0.00246702 9.24158 0.00086376C9.23646 6.07221 9.2517 12.1442 9.23389 18.2152C9.16199 20.0078 7.50288 21.5443 5.65404 21.576C3.784 21.5825 1.91375 21.5769 0.0436368 21.5787V14C1.86013 14.4138 3.76502 14.59 5.61815 14.3155C6.72587 14.1436 7.93783 13.619 8.31287 12.5108C8.58884 11.5628 8.43347 10.5651 8.47455 9.5921V7.3325H5.2675C5.2531 8.82694 5.29701 10.324 5.2443 11.8166C5.15785 12.7341 4.21569 13.317 3.31842 13.2859C2.20566 13.2972 0.000549592 12.5082 0.000549592 12.5082C-0.00499209 9.7082 0.0328305 6.20167 0.048555 3.411V3.41073Z" fill="url(#paint1_linear_20_1734)"/>
<path d="M10.4378 8.24376C10.269 8.2783 10.4039 7.68924 10.3607 7.46578C10.3722 6.05291 10.3367 4.6385 10.3803 3.22663C10.5245 1.43439 12.25 -0.0410789 14.1028 0.00087308H19.5591C19.554 6.07222 19.5692 12.1442 19.5514 18.2152C19.4795 20.0078 17.8202 21.5442 15.9713 21.576C14.1012 21.5828 12.2309 21.5771 10.3606 21.5788V13.2753C11.6379 14.2859 13.3739 14.4432 14.9652 14.446C16.1648 14.4456 17.3575 14.2672 18.5225 14.0004V12.4792C17.2096 13.1102 15.6662 13.511 14.2108 13.1485C13.1956 12.9048 12.4586 11.9586 12.4751 10.9482C12.3574 9.89746 12.9961 8.78814 14.0668 8.47577C15.3962 8.07442 16.8451 8.38138 18.0912 8.90317C18.3582 9.03798 18.6292 9.20518 18.5224 8.77484V7.57915C16.4383 7.10097 14.2204 6.92502 12.1266 7.44521C11.5206 7.61008 10.9301 7.86012 10.4378 8.2439V8.24376Z" fill="url(#paint2_linear_20_1734)"/>
<defs>
<linearGradient id="paint0_linear_20_1734" x1="20.6141" y1="10.3281" x2="29.8181" y2="10.3281" gradientUnits="userSpaceOnUse">
<stop stop-color="#007B40"/>
<stop offset="1" stop-color="#55B330"/>
</linearGradient>
<linearGradient id="paint1_linear_20_1734" x1="-0.152061" y1="10.9964" x2="9.09077" y2="10.9964" gradientUnits="userSpaceOnUse">
<stop stop-color="#1D2970"/>
<stop offset="1" stop-color="#006DBA"/>
</linearGradient>
<linearGradient id="paint2_linear_20_1734" x1="10.3471" y1="10.5375" x2="19.5574" y2="10.5375" gradientUnits="userSpaceOnUse">
<stop stop-color="#6E2B2F"/>
<stop offset="1" stop-color="#E30138"/>
</linearGradient>
</defs>
</svg>
