<svg width="37" height="22" viewBox="0 0 37 22" fill="none" xmlns="http://www.w3.org/2000/svg">
<path d="M22 11C22 17.0756 17.0749 22 10.9997 22C4.92449 22 0 17.0754 0 11C0 4.925 4.92455 0 10.9997 0C17.0748 0 22 4.92524 22 11Z" fill="#D9222A"/>
<path d="M25.8746 0C23.0002 0 20.3809 1.07828 18.4065 2.8475C18.0043 3.20837 17.6289 3.59738 17.2832 4.01157H19.5309C19.8386 4.38152 20.1219 4.77065 20.379 5.17662H16.4352C16.198 5.55178 15.984 5.94073 15.7943 6.34144H21.0196C21.199 6.72045 21.3562 7.10927 21.4907 7.506H15.3233C15.1938 7.88802 15.0858 8.2769 15 8.67081H21.8136C21.9802 9.4362 22.0643 10.217 22.0641 10.9999C22.0641 12.2216 21.8624 13.3967 21.4906 14.4942H15.3232C15.4573 14.8911 15.6145 15.28 15.794 15.659H21.0195C20.8297 16.0598 20.6155 16.4488 20.3782 16.8241H16.435C16.6921 17.2298 16.9754 17.6187 17.2832 17.9882H19.5303C19.1851 18.4032 18.8096 18.7926 18.4067 19.1533C20.3811 20.9222 23.0002 22 25.8748 22C32.019 22 37 17.0755 37 11.0002C37 4.92562 32.019 0.00048997 25.8748 0.00048997" fill="#EE9F2D"/>
<path d="M35.2758 16.6508C35.2758 16.4582 35.4377 16.3016 35.6379 16.3016C35.8381 16.3016 36 16.4582 36 16.6508C36 16.8434 35.8381 17 35.6379 17C35.4377 17 35.2758 16.8434 35.2758 16.6508ZM35.6379 16.9161C35.79 16.9161 35.9132 16.7973 35.9133 16.6508C35.9133 16.5044 35.7901 16.3858 35.6383 16.3857H35.6379C35.4861 16.3855 35.363 16.5039 35.3627 16.65V16.6509C35.3626 16.7973 35.4857 16.9161 35.6376 16.9162C35.6377 16.9161 35.6378 16.9161 35.6379 16.9161ZM35.589 16.8042H35.5148V16.4974H35.6491C35.6772 16.4974 35.7058 16.4974 35.7306 16.5127C35.7564 16.5295 35.771 16.5591 35.771 16.5897C35.771 16.6241 35.7498 16.6562 35.7157 16.6687L35.7743 16.8041H35.6922L35.6435 16.6827H35.5891L35.589 16.8042ZM35.589 16.6302H35.6301C35.6454 16.6302 35.6616 16.6315 35.6754 16.6242C35.6876 16.6167 35.6939 16.6026 35.6939 16.589C35.6936 16.5765 35.6869 16.5648 35.6759 16.5579C35.663 16.5501 35.6424 16.5518 35.6286 16.5518H35.589V16.6302ZM7.88041 11.8107C7.75258 11.7964 7.69642 11.7926 7.60864 11.7926C6.91852 11.7926 6.56915 12.0205 6.56915 12.4709C6.56915 12.7484 6.73965 12.925 7.00567 12.925C7.50168 12.925 7.85905 12.47 7.88041 11.8107ZM8.76577 13.7969H7.75702L7.7802 13.3349C7.47244 13.7 7.06196 13.8736 6.50404 13.8736C5.8441 13.8736 5.3917 13.3769 5.3917 12.6558C5.3917 11.5709 6.17866 10.9378 7.52948 10.9378C7.66743 10.9378 7.84449 10.9498 8.02561 10.9721C8.06334 10.8251 8.07328 10.7621 8.07328 10.6831C8.07328 10.3876 7.86111 10.2775 7.29232 10.2775C6.69672 10.271 6.20547 10.4142 6.00373 10.4782C6.01647 10.4042 6.17242 9.47536 6.17242 9.47536C6.77919 9.30404 7.1793 9.23957 7.62969 9.23957C8.67506 9.23957 9.22885 9.69183 9.22779 10.5466C9.22985 10.7756 9.19049 11.0582 9.12914 11.4297C9.02349 12.0759 8.79676 13.4596 8.76577 13.7969ZM4.88233 13.7969H3.66484L4.36221 9.58335L2.80497 13.7969H1.97534L1.87275 9.60743L1.13971 13.7969H0L0.951962 8.31567H2.70263L2.80884 11.3838L3.8767 8.31567H5.82392L4.88233 13.7969ZM27.0598 11.8107C26.9325 11.7964 26.876 11.7926 26.7885 11.7926C26.0987 11.7926 25.7493 12.0205 25.7493 12.4709C25.7493 12.7484 25.9196 12.925 26.1856 12.925C26.6816 12.925 27.0392 12.47 27.0598 11.8107ZM27.946 13.7969H26.9372L26.9601 13.3349C26.6523 13.7 26.2416 13.8736 25.6842 13.8736C25.0241 13.8736 24.5721 13.3769 24.5721 12.6558C24.5721 11.5709 25.3585 10.9378 26.7096 10.9378C26.8476 10.9378 27.0243 10.9498 27.2053 10.9721C27.243 10.8251 27.253 10.7621 27.253 10.6831C27.253 10.3876 27.041 10.2775 26.4723 10.2775C25.8767 10.271 25.386 10.4142 25.1834 10.4782C25.1962 10.4042 25.3527 9.47536 25.3527 9.47536C25.9594 9.30404 26.3593 9.23957 26.8092 9.23957C27.8551 9.23957 28.4089 9.69183 28.4078 10.5466C28.4098 10.7756 28.3705 11.0582 28.3091 11.4297C28.2039 12.0759 27.9767 13.4596 27.946 13.7969ZM14.1767 13.7292C13.8435 13.8303 13.5837 13.8736 13.302 13.8736C12.6796 13.8736 12.3399 13.5289 12.3399 12.8943C12.331 12.6974 12.4294 12.1792 12.5068 11.7062C12.5771 11.2899 13.0346 8.66457 13.0346 8.66457H14.2449L14.1035 9.33926H14.8344L14.6694 10.4105H13.9357C13.7952 11.2583 13.595 12.3142 13.5927 12.4542C13.5927 12.6839 13.72 12.7842 14.0095 12.7842C14.1482 12.7842 14.2556 12.7706 14.3377 12.7421L14.1767 13.7292ZM17.8873 13.6931C17.4716 13.8155 17.0704 13.8747 16.6453 13.8737C15.2906 13.8724 14.5844 13.1907 14.5844 11.8853C14.5844 10.3615 15.4828 9.23981 16.7023 9.23981C17.7001 9.23981 18.3374 9.86784 18.3374 10.8528C18.3374 11.1796 18.2936 11.4987 18.1882 11.9491H15.7782C15.6967 12.5957 16.1262 12.8652 16.8301 12.8652C17.2634 12.8652 17.6541 12.7791 18.0885 12.5845L17.8873 13.6931ZM17.207 11.0505C17.2137 10.9576 17.3354 10.2548 16.6439 10.2548C16.2584 10.2548 15.9827 10.538 15.8705 11.0505H17.207ZM9.49613 10.7485C9.49613 11.3123 9.7799 11.7011 10.4234 11.9931C10.9165 12.2164 10.9927 12.2826 10.9927 12.4849C10.9927 12.7628 10.7753 12.8883 10.2935 12.8883C9.93035 12.8883 9.59247 12.8336 9.2028 12.7124C9.2028 12.7124 9.04267 13.6948 9.03536 13.7419C9.31214 13.8001 9.55892 13.8539 10.3023 13.8737C11.587 13.8737 12.1803 13.4024 12.1803 12.3838C12.1803 11.7713 11.9319 11.4119 11.3221 11.1417C10.8116 10.916 10.753 10.8656 10.753 10.6574C10.753 10.4164 10.9553 10.2935 11.3489 10.2935C11.5879 10.2935 11.9143 10.3181 12.2236 10.3604L12.3969 9.32655C12.0817 9.2784 11.6037 9.23975 11.3255 9.23975C9.9634 9.23981 9.49194 9.92527 9.49613 10.7485ZM23.809 9.35695C24.1471 9.35695 24.4624 9.44249 24.8968 9.65318L25.096 8.46351C24.9177 8.39603 24.2898 8 23.7579 8C22.9432 8 22.2544 8.38953 21.7699 9.03237C21.0634 8.80688 20.7729 9.26262 20.4169 9.71663L20.1005 9.7876C20.1245 9.63813 20.1461 9.48963 20.1388 9.33938H19.0207C18.8679 10.7189 18.5972 12.1161 18.3852 13.4975L18.33 13.797H19.5481C19.7514 12.5243 19.8628 11.7094 19.9305 11.1579L20.3891 10.912C20.4577 10.6665 20.6721 10.5835 21.1024 10.5935C21.0446 10.895 21.0156 11.201 21.016 11.5075C21.016 12.9658 21.8326 13.8737 23.1434 13.8737C23.481 13.8737 23.7707 13.8309 24.2193 13.7137L24.4336 12.4641C24.0301 12.6556 23.6989 12.7457 23.399 12.7457C22.6912 12.7457 22.2629 12.2422 22.2629 11.4102C22.2629 10.2032 22.8999 9.35695 23.809 9.35695Z" fill="black"/>
<path d="M6.02988 14H4.77532L5.49435 9.38754L3.88997 14H3.03499L2.9293 9.4139L2.1741 14H1L1.98074 8H3.78434L3.83506 11.7145L5.05184 8H7L6.02988 14Z" fill="white"/>
<path d="M34.7931 9L34.5218 10.4247C34.1872 10.0449 33.8278 9.77012 33.3532 9.77012C32.7358 9.77012 32.1738 10.1738 31.806 10.7679C31.2937 10.6763 30.7639 10.5208 30.7639 10.5208L30.7636 10.5244C30.8049 10.1922 30.8214 9.98966 30.8177 9.92083H29.6938C29.5407 11.1619 29.2687 12.4188 29.0561 13.6615L29 13.931H30.2239C30.3892 13.0051 30.5157 12.2364 30.609 11.6267C31.027 11.3009 31.2363 11.0166 31.6589 11.0355C31.4718 11.4257 31.3622 11.8751 31.3622 12.3361C31.3622 13.3387 31.9503 14 32.8398 14C33.2882 14 33.6322 13.8667 33.9679 13.5575L33.9106 13.9303H35.0681L36 9.00005L34.7931 9ZM33.2629 13.0042C32.8464 13.0042 32.6361 12.7384 32.6361 12.2137C32.6361 11.4255 33.0298 10.8667 33.585 10.8667C34.0053 10.8667 34.2329 11.1431 34.2329 11.6524C34.233 12.4473 33.833 13.0042 33.2629 13.0042Z" fill="black"/>
<path d="M8.46709 11.8266C8.34059 11.8116 8.2846 11.8076 8.19787 11.8076C7.51363 11.8076 7.16748 12.0478 7.16748 12.5221C7.16748 12.8141 7.33653 13.0007 7.59979 13.0007C8.09207 13.0006 8.44646 12.5213 8.46709 11.8266ZM9.34534 13.9184H8.34518L8.36791 13.4324C8.06308 13.8163 7.65554 14 7.10293 14C6.44836 14 6 13.4768 6 12.7171C6 11.5735 6.78001 10.907 8.11957 10.907C8.25635 10.907 8.4319 10.9197 8.61129 10.9432C8.64871 10.7884 8.65856 10.7221 8.65856 10.6383C8.65856 10.327 8.44844 10.2115 7.88449 10.2115C7.29372 10.2047 6.8069 10.3556 6.60663 10.4222C6.61926 10.3445 6.77388 9.36706 6.77388 9.36706C7.37524 9.18581 7.77243 9.11788 8.21844 9.11788C9.25521 9.11788 9.80448 9.5946 9.80349 10.4943C9.80529 10.7367 9.76607 11.0342 9.70537 11.425C9.60087 12.1051 9.37588 13.5637 9.34534 13.9184ZM25.5365 8.29997L25.3389 9.55357C24.9084 9.33186 24.5955 9.24155 24.2606 9.24155C23.3592 9.24155 22.7275 10.1331 22.7275 11.4045C22.7275 12.281 23.1522 12.8112 23.8539 12.8112C24.1512 12.8112 24.4793 12.7166 24.8793 12.5147L24.6674 13.8307C24.2224 13.9548 23.9355 14 23.6004 14C22.301 14 21.4911 13.0434 21.4911 11.5071C21.4911 9.44278 22.6098 8 24.2097 8C24.7367 8.00006 25.3595 8.22888 25.5365 8.29997ZM27.4843 11.8266C27.3579 11.8116 27.3021 11.8076 27.215 11.8076C26.5311 11.8076 26.1847 12.0478 26.1847 12.5221C26.1847 12.8141 26.3537 13.0007 26.6172 13.0007C27.109 13.0006 27.4636 12.5213 27.4843 11.8266ZM28.3625 13.9184H27.3621L27.3851 13.4324C27.08 13.8163 26.6727 14 26.1201 14C25.4658 14 25.0173 13.4768 25.0173 12.7171C25.0173 11.5735 25.7975 10.907 27.1365 10.907C27.2736 10.907 27.4489 10.9197 27.6284 10.9432C27.6657 10.7884 27.6757 10.7221 27.6757 10.6383C27.6757 10.327 27.4655 10.2115 26.9017 10.2115C26.3112 10.2047 25.8241 10.3556 25.6238 10.4222C25.6364 10.3445 25.7913 9.36706 25.7913 9.36706C26.3927 9.18581 26.7896 9.11788 27.2356 9.11788C28.2726 9.11788 28.8216 9.5946 28.8203 10.4943C28.8224 10.7367 28.7834 11.0342 28.7225 11.425C28.6183 12.1051 28.3928 13.5637 28.3625 13.9184ZM14.7105 13.8473C14.3798 13.9538 14.1222 14 13.8432 14C13.2261 14 12.8893 13.6369 12.8893 12.9683C12.8808 12.7603 12.9784 12.2149 13.055 11.7167C13.1244 11.2774 13.5782 8.51185 13.5782 8.51185H14.7779L14.6379 9.22291H15.2537L15.0898 10.351H14.4719C14.3325 11.2447 14.1335 12.3563 14.1315 12.5041C14.1315 12.747 14.2579 12.8517 14.5447 12.8517C14.6823 12.8517 14.7886 12.838 14.8702 12.8079L14.7105 13.8473ZM18.3894 13.8097C17.9775 13.9387 17.5793 14.0008 17.158 14C15.8148 13.9987 15.1147 13.2804 15.1147 11.9051C15.1147 10.2992 16.0054 9.11782 17.2145 9.11782C18.2039 9.11782 18.8357 9.77922 18.8357 10.8174C18.8357 11.1621 18.7923 11.4981 18.688 11.9724H16.2986C16.2177 12.6536 16.6435 12.9378 17.3415 12.9378C17.7708 12.9378 18.1585 12.8468 18.589 12.6412L18.3894 13.8097ZM17.7148 11.0249C17.722 10.9274 17.8424 10.1867 17.1565 10.1867C16.7745 10.1867 16.5012 10.4858 16.3899 11.0249H17.7148ZM10.0695 10.7075C10.0695 11.3015 10.3509 11.7106 10.9889 12.0187C11.4778 12.2539 11.5534 12.3238 11.5534 12.5369C11.5534 12.8297 11.3376 12.9618 10.8603 12.9618C10.5001 12.9618 10.165 12.9042 9.77834 12.7765C9.77834 12.7765 9.62013 13.8116 9.61288 13.861C9.88674 13.9224 10.1317 13.9784 10.8688 14C12.1428 14 12.7308 13.5035 12.7308 12.4306C12.7308 11.785 12.4848 11.4064 11.8799 11.1219C11.374 10.8835 11.3154 10.8311 11.3154 10.6116C11.3154 10.3579 11.5165 10.2273 11.9065 10.2273C12.1432 10.2273 12.4668 10.254 12.7739 10.2987L12.9456 9.20921C12.6333 9.15847 12.1594 9.11782 11.8835 9.11782C10.5328 9.11782 10.0656 9.83946 10.0695 10.7075ZM34.7516 13.9184H33.6094L33.6662 13.4812C33.335 13.8438 32.9957 14 32.5532 14C31.6757 14 31.0957 13.2255 31.0957 12.0514C31.0957 10.4894 31.9953 9.17268 33.0599 9.17268C33.5281 9.17268 33.8825 9.36845 34.2123 9.81295L34.4802 8.14453H35.6709L34.7516 13.9184ZM32.9709 12.8333C33.533 12.8333 33.9279 12.1812 33.9279 11.2509C33.9279 10.6544 33.7031 10.3307 33.2884 10.3307C32.7409 10.3307 32.3521 10.9849 32.3521 11.9082C32.352 12.5225 32.56 12.8333 32.9709 12.8333ZM29.4498 9.22297C29.2986 10.6763 29.0302 12.1485 28.8203 13.6029L28.7651 13.9184H29.9724C30.4043 11.0471 30.5088 10.4864 31.1858 10.5567C31.2937 9.96896 31.4944 9.45426 31.6441 9.19449C31.1385 9.08668 30.8561 9.37923 30.4865 9.93491C30.5157 9.69468 30.5691 9.46136 30.5585 9.22303L29.4498 9.22297ZM19.5126 9.22297C19.3611 10.6763 19.0926 12.1485 18.8828 13.6029L18.8278 13.9184H20.0357C20.467 11.0471 20.5713 10.4864 21.248 10.5567C21.3564 9.96896 21.5571 9.45426 21.7063 9.19449C21.2012 9.08668 20.9185 9.37923 20.5492 9.93491C20.5784 9.69468 20.6312 9.46136 20.6212 9.22303L19.5126 9.22297ZM35.2819 13.5507C35.2817 13.3479 35.4421 13.1832 35.6402 13.183H35.641C35.839 13.1827 35.9998 13.347 36 13.5497V13.5507C35.9999 13.7537 35.8393 13.9182 35.641 13.9184C35.4427 13.9182 35.282 13.7537 35.2819 13.5507ZM35.641 13.8301C35.7916 13.8302 35.9136 13.7052 35.9137 13.5511V13.5509C35.9139 13.3966 35.7918 13.2714 35.6412 13.2713H35.641C35.4901 13.2714 35.368 13.3965 35.3679 13.5509C35.368 13.7051 35.4903 13.8301 35.641 13.8301ZM35.5924 13.7114H35.5188V13.3891H35.6522C35.6798 13.3891 35.7085 13.3897 35.7325 13.4053C35.7583 13.4232 35.773 13.4539 35.773 13.486C35.773 13.5225 35.7521 13.5566 35.718 13.5696L35.7763 13.7114H35.6945L35.6462 13.584H35.5923L35.5924 13.7114ZM35.5924 13.5289H35.6329C35.6481 13.5289 35.6646 13.5301 35.678 13.5225C35.6902 13.5146 35.6963 13.4996 35.6963 13.4852C35.6958 13.4719 35.6893 13.4596 35.6786 13.4521C35.6659 13.4446 35.645 13.4467 35.6313 13.4467H35.5923L35.5924 13.5289Z" fill="white"/>
</svg>
