<svg width="123" height="30" viewBox="0 0 123 30" fill="none" xmlns="http://www.w3.org/2000/svg">
<g clip-path="url(#clip0_20_1685)">
<path fill-rule="evenodd" clip-rule="evenodd" d="M10.7198 7.01001H19.1198C23.6298 7.01001 25.3298 9.29001 25.0598 12.65C24.6298 18.19 21.2798 21.25 16.8398 21.25H14.5998C13.9898 21.25 13.5798 21.65 13.4198 22.75L12.4698 29.1C12.4098 29.51 12.1898 29.75 11.8698 29.78H6.58976C6.08976 29.78 5.91976 29.4 6.04976 28.58L9.25976 8.21001C9.38976 7.40001 9.82976 7.01001 10.7198 7.01001Z" fill="#009EE3"/>
<path fill-rule="evenodd" clip-rule="evenodd" d="M47.1799 6.63C50.0099 6.63 52.6299 8.17 52.2699 12C51.8399 16.55 49.3999 19.07 45.5499 19.08H42.1899C41.7099 19.08 41.4699 19.47 41.3499 20.28L40.6999 24.41C40.5999 25.03 40.2799 25.34 39.8099 25.34H36.6799C36.1799 25.34 36.0099 25.02 36.1199 24.31L38.6999 7.74C38.8299 6.92 39.1299 6.62 39.6899 6.62H47.1799V6.63ZM42.0799 15.5H44.6299C46.2199 15.44 47.2799 14.34 47.3899 12.35C47.4499 11.12 46.6199 10.24 45.2999 10.25L42.8999 10.26L42.0799 15.5ZM60.7699 24.08C61.0599 23.82 61.3499 23.69 61.3099 24.01L61.2099 24.78C61.1599 25.18 61.3199 25.39 61.6899 25.39H64.4699C64.9399 25.39 65.1699 25.2 65.2799 24.48L66.9899 13.73C67.0799 13.19 66.9399 12.93 66.5299 12.93H63.4699C63.1899 12.93 63.0599 13.08 62.9899 13.5L62.8799 14.16C62.8199 14.5 62.6599 14.57 62.5199 14.22C61.9999 12.99 60.6799 12.44 58.8299 12.49C54.5399 12.58 51.6599 15.83 51.3499 20C51.1099 23.23 53.4199 25.76 56.4699 25.76C58.6799 25.75 59.6699 25.1 60.7699 24.08ZM58.4399 22.43C56.5999 22.43 55.3099 20.96 55.5799 19.15C55.8499 17.35 57.5699 15.87 59.4199 15.87C61.2699 15.87 62.5499 17.34 62.2799 19.15C62.0099 20.95 60.2899 22.43 58.4399 22.43ZM72.4199 12.89H69.5999C69.0199 12.89 68.7799 13.32 68.9699 13.86L72.4699 24.1L69.0399 28.97C68.7499 29.38 68.9799 29.75 69.3799 29.75H72.5499C72.5899 29.75 72.6199 29.76 72.6599 29.76C72.9999 29.76 73.3099 29.58 73.4899 29.29L84.2499 13.86C84.5799 13.39 84.4299 12.89 83.8799 12.89H80.8799C80.3699 12.89 80.1599 13.09 79.8699 13.52L75.3799 20.02L73.3799 13.5C73.2599 13.1 72.9699 12.89 72.4199 12.89Z" fill="#113984"/>
<path fill-rule="evenodd" clip-rule="evenodd" d="M95.4397 6.63C98.2697 6.63 100.89 8.17 100.53 12C100.1 16.55 97.6597 19.07 93.8097 19.08H90.4497C89.9697 19.08 89.7297 19.47 89.6097 20.28L88.9597 24.41C88.8597 25.03 88.5397 25.34 88.0697 25.34H84.9397C84.4397 25.34 84.2697 25.02 84.3797 24.31L86.9697 7.74C87.0997 6.93 87.3997 6.62 87.9597 6.62L95.4397 6.63ZM90.3497 15.5H92.8997C94.4897 15.44 95.5497 14.34 95.6597 12.35C95.7197 11.12 94.8897 10.24 93.5697 10.25L91.1697 10.26L90.3497 15.5ZM109.03 24.08C109.32 23.82 109.61 23.69 109.57 24.01L109.47 24.78C109.42 25.18 109.58 25.39 109.95 25.39H112.73C113.2 25.39 113.43 25.2 113.54 24.48L115.25 13.73C115.34 13.19 115.2 12.93 114.79 12.93H111.74C111.46 12.93 111.33 13.08 111.26 13.5L111.15 14.16C111.09 14.5 110.93 14.57 110.79 14.22C110.27 12.99 108.95 12.44 107.11 12.49C102.82 12.58 99.9397 15.83 99.6297 20C99.3897 23.23 101.7 25.76 104.75 25.76C106.96 25.76 107.95 25.11 109.06 24.09L109.03 24.08ZM106.71 22.43C104.87 22.43 103.58 20.96 103.85 19.15C104.12 17.35 105.84 15.87 107.69 15.87C109.53 15.87 110.82 17.34 110.55 19.15C110.28 20.95 108.55 22.43 106.71 22.43ZM119.52 25.4H116.31C116.3 25.4 116.3 25.4 116.29 25.4C116.08 25.4 115.91 25.23 115.91 25.02C115.91 25 115.91 24.98 115.91 24.97L118.73 7.12C118.79 6.87 119.01 6.69 119.26 6.69H122.47C122.48 6.69 122.48 6.69 122.49 6.69C122.7 6.69 122.87 6.86 122.87 7.07C122.87 7.09 122.87 7.11 122.87 7.12L120.05 24.97C120 25.22 119.78 25.4 119.52 25.4Z" fill="#009EE3"/>
<path fill-rule="evenodd" clip-rule="evenodd" d="M5.4698 0H13.8798C16.2498 0 19.0598 0.08 20.9298 1.73C22.1798 2.84 22.8398 4.6 22.6898 6.5C22.1698 12.92 18.3398 16.51 13.1898 16.51H9.0398C8.3298 16.51 7.8698 16.98 7.6698 18.24L6.5098 25.61C6.4298 26.09 6.2298 26.37 5.8598 26.4H0.679805C0.109805 26.4 -0.100195 25.97 0.0498047 25.01L3.7798 1.4C3.9298 0.45 4.4498 0 5.4698 0Z" fill="#113984"/>
<path fill-rule="evenodd" clip-rule="evenodd" d="M7.79004 17.5L9.26004 8.21C9.39004 7.4 9.83004 7 10.72 7H19.12C20.51 7 21.63 7.22 22.51 7.62C21.67 13.33 17.97 16.51 13.13 16.51H9.00004C8.44004 16.51 8.04004 16.79 7.79004 17.5Z" fill="#172C70"/>
</g>
<defs>
<clipPath id="clip0_20_1685">
<rect width="122.88" height="29.77" fill="white"/>
</clipPath>
</defs>
</svg>
