<svg width="123" height="27" viewBox="0 0 123 27" fill="none" xmlns="http://www.w3.org/2000/svg">
<g clip-path="url(#clip0_20_1679)">
<path d="M11.19 9.03003L7.94 21.47H0L1.61 15.35L11.19 9.03003Z" fill="#072654"/>
<path d="M28.0899 5.07996C29.9499 5.08996 31.2599 5.49996 31.9999 6.32996C32.7399 7.15996 32.9199 8.33996 32.5099 9.88996C32.2399 10.95 31.6899 11.92 30.9199 12.69C30.1199 13.49 29.1399 14.07 28.0499 14.37C28.8799 14.56 29.3899 15.15 29.5499 16.16L29.5799 16.38L30.1799 21.47H26.4799L25.8599 15.99C25.8499 15.81 25.7999 15.63 25.7099 15.47C25.6199 15.31 25.4899 15.18 25.3399 15.08C25.0299 14.92 24.6899 14.84 24.3399 14.83H24.1299H21.8499L20.1099 21.46H16.6499L20.9499 5.07996H28.0899ZM122.88 9.36996L118.48 15.71L113.29 23.23L113.25 23.27L112.09 24.95L112.05 25.01L112 25.09L111 26.53H107.56L111.58 20.86L109.76 9.76996H113.33L114.23 17L118.59 10.81L118.65 10.72L118.72 10.62L118.79 10.53L119.33 9.37996H122.88V9.36996ZM92.3999 10.25C93.0599 10.81 93.4899 11.58 93.6399 12.44C93.8199 13.51 93.7399 14.62 93.4299 15.66C93.1399 16.81 92.6499 17.89 91.9699 18.85C91.3499 19.73 90.5499 20.46 89.6199 20.98C88.7399 21.46 87.7699 21.71 86.7699 21.71C86.0599 21.74 85.3599 21.56 84.7499 21.2C84.2799 20.92 83.9199 20.49 83.7199 19.98L83.6599 19.78L81.8899 26.53H78.4599L81.9699 13.13L81.9899 13.07L81.9999 13.01L82.8599 9.75996H86.2099L85.6399 11.64L85.6299 11.72C86.1199 11.02 86.7799 10.45 87.5399 10.08C88.2999 9.67996 89.1399 9.47996 89.9899 9.47996C90.8399 9.42996 91.6999 9.70996 92.3999 10.25ZM88.2599 12.11C87.8599 12.1 87.4599 12.18 87.0799 12.33C86.7099 12.48 86.3699 12.71 86.0799 12.99C85.3999 13.69 84.9299 14.58 84.7199 15.53C84.4199 16.64 84.4399 17.48 84.7399 18.06C85.0399 18.64 85.6099 18.94 86.4599 18.94C87.2699 18.96 88.0499 18.65 88.6399 18.08C89.2999 17.39 89.7599 16.53 89.9699 15.59C90.2599 14.5 90.2399 13.63 89.9399 13.02C89.6399 12.41 89.0799 12.11 88.2599 12.11ZM103.66 9.98996C104.12 10.28 104.48 10.71 104.68 11.22L104.75 11.41L105.19 9.74996H108.55L105.47 21.45H102.1L102.55 19.72C102.04 20.33 101.4 20.81 100.68 21.14C99.9799 21.46 99.2299 21.63 98.4699 21.63C97.5899 21.67 96.7099 21.42 95.9899 20.89C95.3299 20.37 94.8899 19.61 94.7499 18.78C94.5699 17.72 94.6299 16.64 94.9399 15.61C95.2399 14.46 95.7399 13.37 96.4299 12.4C97.0599 11.51 97.8699 10.76 98.8099 10.22C99.6699 9.71996 100.65 9.44996 101.64 9.44996C102.36 9.42996 103.06 9.60996 103.66 9.98996ZM101.92 12.14C101.51 12.14 101.1 12.22 100.73 12.38C100.35 12.54 100.01 12.77 99.7199 13.06C99.0499 13.77 98.5699 14.65 98.3599 15.61C98.0799 16.69 98.0799 17.51 98.3999 18.1C98.7099 18.69 99.2899 18.97 100.15 18.97C100.55 18.98 100.95 18.9 101.33 18.75C101.71 18.6 102.04 18.37 102.33 18.09C102.92 17.46 103.35 16.71 103.59 15.87L103.67 15.56C103.97 14.45 103.96 13.6 103.64 13.03C103.33 12.44 102.76 12.14 101.92 12.14ZM81.1299 9.62996L81.3499 9.71996L80.4899 12.91C79.9999 12.65 79.4599 12.52 78.9199 12.52C78.0999 12.49 77.2999 12.76 76.6499 13.27C76.0899 13.75 75.6799 14.39 75.4699 15.09L75.3999 15.36L73.7999 21.47H70.3799L73.4799 9.76996H76.8499L76.4099 11.49C76.8299 10.91 77.3699 10.44 77.9799 10.09C78.6599 9.69996 79.4199 9.49996 80.1999 9.49996C80.5099 9.47996 80.8299 9.51996 81.1299 9.62996ZM68.4999 10.19C69.2599 10.67 69.8099 11.43 70.0199 12.31C70.2699 13.37 70.2299 14.49 69.9099 15.53C69.6099 16.71 69.0799 17.81 68.3299 18.75C67.6199 19.66 66.7199 20.38 65.6899 20.87C64.6399 21.36 63.4999 21.61 62.3399 21.6C61.1199 21.6 60.1199 21.36 59.3399 20.87C58.5699 20.39 58.0199 19.63 57.7999 18.75C57.5599 17.69 57.5999 16.57 57.9099 15.53C58.2099 14.36 58.7399 13.26 59.4899 12.31C60.1999 11.41 61.1099 10.68 62.1499 10.19C63.2099 9.69996 64.3699 9.43996 65.5399 9.45996C66.5699 9.40996 67.5999 9.66996 68.4999 10.19ZM64.8399 12.1C64.0299 12.09 63.2499 12.4 62.6599 12.96C62.0499 13.54 61.5899 14.39 61.2999 15.53C60.6999 17.82 61.2799 18.96 63.0399 18.96C63.8399 18.98 64.6099 18.67 65.1899 18.11C65.7899 17.54 66.2299 16.68 66.5299 15.53C66.8299 14.4 66.8399 13.55 66.5399 12.96C66.2499 12.37 65.6799 12.1 64.8399 12.1ZM57.8899 9.75996L57.2899 12.08L49.7399 18.75H55.7999L55.0799 21.48H45.0499L45.6799 19.07L53.1099 12.5H47.4599L48.1799 9.76996H57.8899V9.75996ZM40.9599 9.98996C41.4199 10.28 41.7799 10.71 41.9799 11.22L42.0499 11.41L42.4899 9.74996H45.8599L42.7899 21.45H39.4199L39.8699 19.72C39.3599 20.32 38.7299 20.8 38.0199 21.13C37.3099 21.46 36.5399 21.63 35.7499 21.63C34.8699 21.67 34.0099 21.41 33.2999 20.89C32.6399 20.37 32.1999 19.61 32.0599 18.78C31.8799 17.72 31.9399 16.64 32.2499 15.61C32.5399 14.46 33.0499 13.37 33.7399 12.4C34.3699 11.51 35.1799 10.76 36.1099 10.22C36.9699 9.71996 37.9499 9.45996 38.9399 9.45996C39.6599 9.43996 40.3599 9.61996 40.9599 9.98996ZM39.2299 12.14C38.8199 12.14 38.4199 12.22 38.0399 12.38C37.6599 12.54 37.3199 12.77 37.0299 13.06C36.3499 13.77 35.8799 14.65 35.6699 15.61C35.3899 16.69 35.3999 17.51 35.7099 18.1C36.0199 18.69 36.5999 18.97 37.4599 18.97C37.8599 18.98 38.2599 18.9 38.6399 18.75C39.0099 18.6 39.3599 18.37 39.6399 18.09C40.2299 17.47 40.6699 16.71 40.8999 15.87L40.9799 15.56C41.2699 14.45 41.2399 13.62 40.9499 13.03C40.6399 12.44 40.0599 12.14 39.2299 12.14ZM26.8499 7.80996H23.6399L22.5099 12.09H25.7199C26.7299 12.09 27.5299 11.92 28.0699 11.57C28.6399 11.2 29.0499 10.62 29.1999 9.93996C29.3999 9.21996 29.3099 8.66996 28.9299 8.31996C28.5499 7.98996 27.8599 7.80996 26.8499 7.80996Z" fill="#072654"/>
<path d="M18.3999 0L12.7599 21.47H8.88986L12.6999 6.93L6.85986 10.78L7.89986 6.95L18.3999 0Z" fill="#3395FF"/>
</g>
<defs>
<clipPath id="clip0_20_1679">
<rect width="122.88" height="26.53" fill="white"/>
</clipPath>
</defs>
</svg>
