<svg width="21" height="21" viewBox="0 0 21 21" fill="none" xmlns="http://www.w3.org/2000/svg">
<g clip-path="url(#clip0_20_1654)">
<path d="M11.2158 1.07233C10.6316 1.17188 10.0612 1.34392 9.51709 1.5847C9.0626 1.78496 8.62721 2.02841 8.21655 2.31187C7.81498 2.58803 7.44114 2.90477 7.10059 3.25738C6.88453 3.47858 6.68246 3.71383 6.4956 3.96166H8.69678C9.43054 2.90585 10.2754 1.93685 11.2158 1.07233ZM1.05762 8.61346H12.9402C13.1854 8.61485 13.4203 8.71583 13.5937 8.8945C13.7671 9.07317 13.8651 9.31509 13.8665 9.56776V17.6406C13.8651 17.8933 13.7671 18.1352 13.5937 18.3139C13.4203 18.4926 13.1854 18.5935 12.9402 18.5949H6.5332C6.6084 18.3836 6.67505 18.1653 6.73315 17.9382H12.9402C13.016 17.9371 13.0883 17.9055 13.1418 17.8501C13.1688 17.8228 13.1902 17.7901 13.2049 17.7542C13.2195 17.7182 13.2272 17.6796 13.2273 17.6406V13.1156H0.770508V14.1192C0.559925 14.1746 0.346551 14.2181 0.131348 14.2495V9.56776C0.131799 9.31481 0.229533 9.07235 0.403145 8.89348C0.576756 8.71462 0.812094 8.61392 1.05762 8.61346ZM9.21118 14.1967C9.40486 14.1963 9.59591 14.2428 9.76896 14.3324C9.94201 14.422 10.0922 14.5522 10.2075 14.7126C10.3634 14.4967 10.5814 14.3369 10.8305 14.256C11.0795 14.175 11.347 14.177 11.5949 14.2616C11.8429 14.3462 12.0586 14.5091 12.2115 14.7273C12.3644 14.9454 12.4467 15.2076 12.4467 15.4767C12.4467 15.7458 12.3644 16.008 12.2115 16.2261C12.0586 16.4443 11.8429 16.6072 11.5949 16.6918C11.347 16.7764 11.0795 16.7784 10.8305 16.6974C10.5814 16.6165 10.3634 16.4567 10.2075 16.2409C10.081 16.4161 9.91299 16.555 9.71959 16.6445C9.52619 16.7339 9.31378 16.7709 9.10259 16.7519C8.8914 16.7329 8.68844 16.6585 8.51303 16.5358C8.33762 16.4132 8.19559 16.2463 8.10046 16.0511C8.00532 15.8559 7.96025 15.6389 7.96952 15.4207C7.9788 15.2025 8.04211 14.9904 8.15344 14.8045C8.26477 14.6186 8.42041 14.4652 8.60555 14.3588C8.7907 14.2524 8.99918 14.1966 9.21118 14.1967ZM0.770508 10.5837H13.2273V9.56776C13.2268 9.48946 13.1965 9.41449 13.1427 9.35911C13.089 9.30374 13.0162 9.27243 12.9402 9.27197H1.05762C1.01985 9.27173 0.982413 9.27922 0.947477 9.29401C0.912541 9.30879 0.8808 9.33057 0.854095 9.35808C0.827389 9.3856 0.806249 9.4183 0.791901 9.45429C0.777552 9.49028 0.770281 9.52885 0.770508 9.56776V10.5837ZM19.0566 12.6472H19.0754C19.2198 12.3822 19.3505 12.1095 19.4668 11.8303L19.4771 11.8056C19.668 11.34 19.8129 10.8557 19.9094 10.3601C19.9784 10.001 20.023 9.63743 20.0427 9.27197H17.9304C17.8622 10.4588 17.5301 11.6137 16.9597 12.6472H19.0566ZM18.4568 13.6174H16.3735C16.1268 13.9837 15.8616 14.3363 15.5789 14.6738V12.6472H15.8711C16.5169 11.6386 16.9022 10.4769 16.9905 9.27197H15.5789V8.30005H16.97C16.856 7.19198 16.4487 6.06747 15.748 4.92653H12.9419V6.73302H12.0002V4.93005H9.19409C8.83796 5.49618 8.54555 6.10225 8.32251 6.73654H7.3313C7.52444 6.10787 7.78226 5.50227 8.10034 4.93005H5.8667C5.72009 5.19375 5.58717 5.46528 5.46851 5.7435L5.45825 5.76639C5.32974 6.0808 5.22184 6.40374 5.13525 6.73302H4.16968C4.27647 6.27322 4.41994 5.8233 4.59863 5.38784L4.60889 5.35966C4.82669 4.83677 5.09101 4.33577 5.39844 3.86306C6.00663 2.92997 6.78496 2.12749 7.69019 1.50019C8.14881 1.18312 8.63513 0.91079 9.14282 0.686737C10.1966 0.226101 11.3307 -0.00758202 12.4753 5.94613e-05C13.0492 0.0013085 13.6216 0.0602786 14.1843 0.176131C14.7287 0.289297 15.2605 0.458591 15.772 0.681455L15.7976 0.692019C16.3053 0.916072 16.7916 1.1884 17.2502 1.50547C18.1567 2.13241 18.9362 2.93492 19.5454 3.86834C19.8529 4.34069 20.1167 4.84176 20.3333 5.36495C20.5556 5.90038 20.724 6.45793 20.8357 7.02882C21.056 8.19165 21.056 9.38741 20.8357 10.5502C20.7231 11.1114 20.5559 11.6594 20.3367 12.1859L20.3247 12.2124C20.1085 12.7357 19.8447 13.2368 19.5369 13.709C18.9283 14.6434 18.1487 15.4467 17.2417 16.0736C16.7831 16.3901 16.2967 16.6619 15.7891 16.8853C15.7173 16.917 15.6455 16.9487 15.572 16.9768V15.9204C15.9711 15.7343 16.3547 15.5147 16.7188 15.2637C17.1207 14.9874 17.4946 14.6701 17.8347 14.3164C18.0508 14.0952 18.2528 13.86 18.4397 13.6121L18.4568 13.6174ZM17.9219 8.30005H20.0513C20.0283 7.93674 19.9809 7.57552 19.9094 7.21898C19.8118 6.71462 19.6641 6.22196 19.4685 5.74878C19.3512 5.46966 19.2201 5.19697 19.0754 4.93181H16.8418C17.4303 5.96383 17.7958 7.11451 17.9133 8.30533L17.9219 8.30005ZM9.86401 3.95462H12.0002V1.64809C11.2235 2.35046 10.5086 3.12232 9.86401 3.95462ZM12.9402 3.95462H15.0764C14.4318 3.12232 13.7169 2.35046 12.9402 1.64809V3.95462ZM16.2437 3.95462H18.4568C18.2699 3.70678 18.0679 3.47154 17.8518 3.25033C17.5113 2.89773 17.1374 2.58099 16.7358 2.30483C16.3221 2.02251 15.8832 1.78138 15.425 1.5847L15.4028 1.57414C14.9506 1.37661 14.4798 1.22734 13.998 1.12868C13.9092 1.11107 13.8271 1.09346 13.728 1.07938C14.6672 1.93952 15.5114 2.90377 16.2454 3.95462H16.2437Z" fill="#9CA3AF"/>
<path fill-rule="evenodd" clip-rule="evenodd" d="M5.88229 15.3024C6.03268 18.403 4.92013 20.2324 2.94967 21.0001C1.04586 20.2834 -0.0786521 18.5315 -3.88441e-05 15.2549C1.05614 15.3354 2.10307 15.0036 2.93258 14.3252C3.77682 14.8763 4.85348 15.3975 5.87716 15.3024H5.88229ZM1.25265 17.3395C1.47245 17.3147 1.69422 17.3147 1.91402 17.3395C1.97555 17.3765 2.03707 17.417 2.09518 17.4593C2.15432 17.4996 2.21137 17.5431 2.26607 17.5896L2.38058 17.697L2.45406 17.7744C2.55318 17.6124 2.65572 17.4575 2.75826 17.3078C2.8608 17.1582 2.9941 16.9821 3.11544 16.8307C3.23678 16.6793 3.38546 16.5085 3.5273 16.3571C3.66915 16.2056 3.81271 16.063 3.96139 15.9257H3.97164L4.03146 15.9028H4.04513H4.69796C4.70304 15.9028 4.70808 15.9038 4.71275 15.9059C4.71743 15.908 4.72165 15.911 4.72517 15.9148C4.72868 15.9185 4.73142 15.923 4.7332 15.9279C4.73499 15.9328 4.73579 15.9381 4.73556 15.9433C4.73576 15.9486 4.73479 15.9539 4.73272 15.9588C4.73065 15.9637 4.72753 15.968 4.72359 15.9715L4.59371 16.1194C4.39205 16.3541 4.20008 16.5889 4.01778 16.8236C3.83549 17.0584 3.66061 17.302 3.49313 17.5543C3.32906 17.7985 3.17298 18.0479 3.02486 18.3026C2.87618 18.5562 2.73605 18.8168 2.60445 19.0791L2.52242 19.2411C2.52024 19.2458 2.51717 19.25 2.51339 19.2534C2.50961 19.2568 2.50519 19.2595 2.50041 19.2611C2.49563 19.2627 2.49057 19.2634 2.48555 19.263C2.48052 19.2626 2.47562 19.2611 2.47115 19.2587C2.46692 19.2569 2.46308 19.2543 2.45985 19.251C2.45662 19.2477 2.45407 19.2437 2.45235 19.2393L2.37887 19.0738C2.31075 18.9233 2.23429 18.7769 2.14986 18.6354C2.06883 18.496 1.97861 18.3624 1.87984 18.2357C1.78185 18.1104 1.67503 17.9927 1.56026 17.8836C1.44347 17.773 1.31957 17.6707 1.18941 17.5772C1.18218 17.5725 1.17672 17.5654 1.17392 17.5571C1.17112 17.5488 1.17116 17.5397 1.17403 17.5315L1.22188 17.3695C1.22418 17.3611 1.22913 17.3538 1.23595 17.3487C1.24277 17.3436 1.25106 17.341 1.25948 17.3413L1.25265 17.3395Z" fill="#01A601"/>
</g>
<defs>
<clipPath id="clip0_20_1654">
<rect width="21" height="21" fill="white"/>
</clipPath>
</defs>
</svg>
