<svg width="78" height="32" viewBox="0 0 78 32" fill="none" xmlns="http://www.w3.org/2000/svg">
<g clip-path="url(#clip0_20_1763)">
<path d="M5.48167 12.4837C5.48167 11.6542 6.175 11.3352 7.32333 11.3352C8.97 11.3352 11.05 11.8244 12.6967 12.6963V7.69861C10.8983 6.9968 9.12167 6.72033 7.32333 6.72033C2.925 6.72033 0 8.97462 0 12.7389C0 18.6085 8.23333 17.6728 8.23333 20.2035C8.23333 21.1818 7.36667 21.5008 6.15333 21.5008C4.355 21.5008 2.05833 20.7777 0.238333 19.7995V24.861C2.25333 25.7117 4.29 26.0732 6.15333 26.0732C10.66 26.0732 13.7583 23.8827 13.7583 20.0759C13.7367 13.7384 5.48167 14.8655 5.48167 12.4837ZM20.1283 2.46696L14.8417 3.57284L14.82 20.6076C14.82 23.7551 17.225 26.0732 20.4317 26.0732C22.2083 26.0732 23.5083 25.7542 24.2233 25.3714V21.0542C23.53 21.3307 20.1067 22.309 20.1067 19.1615V11.6117H24.2233V7.08187H20.1067L20.1283 2.46696ZM30.9617 8.65562L30.615 7.08187H25.935V25.6904H31.3517V13.0791C32.63 11.4416 34.7967 11.7393 35.4683 11.9733V7.08187C34.775 6.82667 32.24 6.3588 30.9617 8.65562ZM36.79 7.08187H42.2283V25.6904H36.79V7.08187ZM36.79 5.46559L42.2283 4.31718V0L36.79 1.12714V5.46559ZM53.5383 6.72033C51.415 6.72033 50.05 7.69861 49.2917 8.37915L49.01 7.0606H44.2433V31.8578L49.66 30.7306L49.6817 24.7121C50.4617 25.265 51.61 26.0519 53.5167 26.0519C57.395 26.0519 60.9267 22.9895 60.9267 16.2479C60.905 10.0805 57.33 6.72033 53.5383 6.72033ZM52.2383 21.3732C50.96 21.3732 50.2017 20.9266 49.6817 20.3737L49.66 12.4837C50.2233 11.8669 51.0033 11.4416 52.2383 11.4416C54.21 11.4416 55.575 13.6108 55.575 16.3968C55.575 19.2465 54.2317 21.3732 52.2383 21.3732ZM78 16.4606C78 11.0162 75.3133 6.72033 70.1783 6.72033C65.0217 6.72033 61.9017 11.0162 61.9017 16.418C61.9017 22.8194 65.585 26.0519 70.8717 26.0519C73.45 26.0519 75.4 25.4777 76.8733 24.6696V20.4162C75.4 21.1393 73.71 21.5859 71.565 21.5859C69.4633 21.5859 67.6 20.8628 67.3617 18.3533H77.9567C77.9567 18.0768 78 16.971 78 16.4606ZM67.2967 14.4402C67.2967 12.0371 68.7917 11.0375 70.1567 11.0375C71.4783 11.0375 72.8867 12.0371 72.8867 14.4402H67.2967Z" fill="#6772E5"/>
</g>
<defs>
<clipPath id="clip0_20_1763">
<rect width="78" height="32" fill="white"/>
</clipPath>
</defs>
</svg>
