<svg width="10" height="10" viewBox="0 0 10 10" fill="none" xmlns="http://www.w3.org/2000/svg">
<path d="M4.02787 7.44793H4.02162C3.9658 7.44716 3.9107 7.43519 3.85959 7.41271C3.80849 7.39024 3.76242 7.35772 3.72412 7.31709L1.77996 5.25001C1.74242 5.21018 1.7131 5.16334 1.69366 5.11217C1.67423 5.061 1.66506 5.00651 1.66669 4.9518C1.66997 4.84131 1.71701 4.73665 1.79746 4.66084C1.87791 4.58503 1.98518 4.54429 2.09567 4.54757C2.15037 4.5492 2.20423 4.56158 2.25415 4.58402C2.30407 4.60646 2.34909 4.63851 2.38662 4.67834L4.03621 6.43126L7.61954 2.83001C7.65787 2.79012 7.70376 2.75826 7.75452 2.73629C7.80529 2.71432 7.85993 2.70268 7.91524 2.70205C7.97056 2.70142 8.02545 2.71181 8.0767 2.73262C8.12796 2.75342 8.17456 2.78423 8.21379 2.82323C8.25302 2.86224 8.28408 2.90866 8.30518 2.9598C8.32627 3.01094 8.33697 3.06577 8.33666 3.12109C8.33634 3.1764 8.32501 3.23111 8.30333 3.282C8.28164 3.33289 8.25005 3.37896 8.21037 3.41751L4.32287 7.32501C4.28431 7.36403 4.23837 7.395 4.18772 7.4161C4.13708 7.4372 4.08274 7.44802 4.02787 7.44793Z" fill="#057A55"/>
</svg>
