<svg width="119" height="119" viewBox="0 0 119 119" fill="none" xmlns="http://www.w3.org/2000/svg">
<path d="M59.5 0C26.631 0 0 26.631 0 59.5C0 92.3689 26.631 119 59.5 119C92.3689 119 119 92.3689 119 59.5C119 26.631 92.3689 0 59.5 0ZM59.5 23.0323C71.1601 23.0323 80.6129 32.4851 80.6129 44.1452C80.6129 55.8052 71.1601 65.2581 59.5 65.2581C47.8399 65.2581 38.3871 55.8052 38.3871 44.1452C38.3871 32.4851 47.8399 23.0323 59.5 23.0323ZM59.5 105.565C45.4167 105.565 32.797 99.1827 24.3518 89.202C28.8623 80.7089 37.6913 74.8548 47.9839 74.8548C48.5597 74.8548 49.1355 74.9508 49.6873 75.1188C52.8063 76.1264 56.0692 76.7742 59.5 76.7742C62.9308 76.7742 66.2177 76.1264 69.3127 75.1188C69.8645 74.9508 70.4403 74.8548 71.0161 74.8548C81.3087 74.8548 90.1377 80.7089 94.6482 89.202C86.203 99.1827 73.5833 105.565 59.5 105.565Z" fill="#E5E7EB"/>
</svg>
