<svg width="46" height="14" viewBox="0 0 46 14" fill="none" xmlns="http://www.w3.org/2000/svg">
<path d="M15.9205 13.8403L18.1998 0.277274H21.8456L19.5646 13.8403H15.9205ZM32.7365 0.569651C32.0144 0.294872 30.8825 0 29.469 0C25.8664 0 23.329 1.83955 23.3072 4.47601C23.2869 6.42489 25.1189 7.51216 26.5018 8.16087C27.921 8.82585 28.398 9.24973 28.3912 9.84328C28.3821 10.7525 27.2579 11.1676 26.2099 11.1676C24.7508 11.1676 23.9755 10.9621 22.7782 10.4559L22.3082 10.2403L21.7966 13.2765C22.6482 13.6553 24.2228 13.9831 25.8579 14.0002C29.6903 14.0002 32.1783 12.1816 32.2066 9.36613C32.2202 7.82318 31.2489 6.64916 29.1454 5.68106C27.8711 5.05363 27.0907 4.63495 27.099 3.99961C27.099 3.43585 27.7596 2.83301 29.1871 2.83301C30.3791 2.81424 31.2429 3.07786 31.9158 3.35264L32.2424 3.50915L32.7365 0.569651ZM42.1185 0.277065H39.3014C38.4287 0.277065 37.7755 0.518589 37.3923 1.40182L31.9777 13.8313H35.8062C35.8062 13.8313 36.432 12.1601 36.5736 11.7931C36.9919 11.7931 40.7111 11.799 41.2428 11.799C41.3518 12.2738 41.6863 13.8313 41.6863 13.8313H45.0694L42.1185 0.27665V0.277065ZM37.6488 9.03523C37.9504 8.25378 39.1014 5.24374 39.1014 5.24374C39.0799 5.27984 39.4007 4.45848 39.5847 3.94924L39.8311 5.11862C39.8311 5.11862 40.5292 8.35618 40.6752 9.03502H37.6488V9.03523ZM12.8255 0.277065L9.25614 9.52645L8.8759 7.64685C8.21135 5.48007 6.14111 3.13253 3.82666 1.95727L7.09045 13.8186L10.9479 13.8143L16.6876 0.276927L12.8255 0.276858" fill="#0E4595"/>
<path d="M5.92554 0.2771H0.0465994L0 0.559292C4.57375 1.68197 7.60003 4.39505 8.85657 7.65534L7.57824 1.42257C7.35761 0.563726 6.71752 0.307376 5.92568 0.277445" fill="#F2AE14"/>
</svg>
